<?xml version="1.0" encoding="UTF-8"?>
<svg xmlns="http://www.w3.org/2000/svg" viewBox="0 0 182 188" width="182" height="188">
<path d="M75.86 5.73C111.15 4.11 145.23 26.75 154.81 61.38C156.65 68.01 157.16 74.88 157.17 81.75C157.17 85.07 156.07 90.3 157.34 93.4C158.04 95.1 163.72 98.66 165.38 100.37C170.22 105.34 174.65 111.27 177.79 117.44C189.43 140.27 174.81 171.28 152.17 180.92C136.96 187.39 117.59 186.98 103.87 176.88C100.26 174.23 97.11 171.46 94.14 168.12C92.81 166.63 91.89 164.13 90.04 163.24C86.11 161.34 71.62 162.02 65.77 160.89C47.36 157.35 29.93 147.26 18.04 132.68C13.24 126.78 9.76 119.91 6.76 112.97C-14.75 63.11 23.24 8.14 75.86 5.73ZM151.75 90.59C152.62 87.79 152.12 84.68 151.96 81.75C151.34 70.11 148.69 59.8 143.21 49.56C120.91 7.87 62.02 -1.74 28.42 32.17C-5.69 66.59 2.62 120.75 42.57 146.2C51.73 152.03 62.97 155.23 73.75 156C77.52 156.27 82.13 156.97 85.75 155.71C86.28 153.89 86.19 152.73 84.95 151.25C79.77 149.86 73.72 150.62 68.36 149.79C58.7 148.29 49.22 144.03 41.18 138.56C3.61 113.02 4.44 58.61 38.76 31.01C70.42 5.55 118.31 16.49 137.66 51.6C140.9 57.48 144 63.55 145.12 70.25C145.97 75.36 145.49 83.87 146.95 88.24C147.6 90.18 150 90.43 151.75 90.59ZM76.1 23.25C68.91 21.07 52.82 28.87 46.42 32.68C43.84 34.21 40.25 36.35 39.18 39.25C41.5 42.57 47.03 44.89 45.72 49.75C41.39 52.4 37.97 45.21 34.25 43.88C27.8 47.21 21 64.79 19.83 71.7C19.36 74.48 18.25 77.47 19 80.25C22.92 80.9 26.83 81.54 30.75 82.19C30.46 83.38 30.17 84.56 29.89 85.75C26.35 86.25 22.81 86.75 19.28 87.25C17.58 95.44 23.99 109.88 28.61 116.64C30.48 119.38 31.8 122.85 35.25 123.67C37.55 121.18 42.13 116.24 45.75 118.08C46.41 123 40.71 124.44 39.16 128.25C40.62 131.02 43.6 132.47 46.1 134.16C53.77 139.36 62.55 142.42 71.63 144.21C74.8 144.84 79.2 146.4 82.25 145.02C83.48 138.43 81.7 131.35 83.3 124.6C87.4 107.35 101.99 92.33 119.33 88.15C123.78 87.08 128.69 86.66 133.25 86.96C135.61 87.12 137.89 87.99 140.25 87.6C141.68 84.47 140.33 80.08 140.03 76.75C139.24 67.9 132.51 48.27 124.75 43.13C121.48 43.41 118.93 48.48 116.25 50.37C115.11 49.5 113.97 48.62 112.83 47.75C113.44 43.6 118.13 42.87 120.25 39.83C120.09 36.84 114.8 34.22 112.5 32.75C106.01 28.6 89.39 20.86 81.94 23.25C81.94 26.69 81.94 30.13 81.94 33.57C80.16 34.23 78.69 34.53 76.93 33.75C76.66 30.25 76.38 26.75 76.1 23.25ZM82.32 52.18C83.69 55.31 82.66 60.76 82.67 64.25C82.68 69.71 83.99 80.75 81.74 85.51C80.53 88.07 77.47 90.3 75.44 92.2C72.3 95.13 69.43 99.36 64.75 98.79C60.11 93.87 74.29 86.73 75.81 82.61C78.26 75.91 74.33 59.5 76.25 52.18C78.27 52.18 80.3 52.18 82.32 52.18ZM123.32 93.21C107.94 95.39 95.06 108.71 90.26 122.99C88.35 128.67 88.52 135.37 89.06 141.25C89.45 145.58 90.14 150.25 92.06 154.21C101.24 173.18 123.97 183.02 144.36 177.67C174.67 169.71 182.3 131.8 165.56 108.18C156.9 95.97 137.33 91.21 123.32 93.21ZM156.75 109.54C160.39 115.91 155.94 133.86 158.25 141.58C160.46 141.98 162.67 142.38 164.88 142.79C164.88 144.11 164.88 145.43 164.88 146.75C162.65 147.25 160.41 147.75 158.17 148.25C157.86 150.77 157.56 153.29 157.25 155.81C155.69 155.81 154.13 155.81 152.58 155.81C152.32 153.29 152.06 150.77 151.79 148.25C143.98 147.92 136.16 147.58 128.35 147.25C127.22 144.01 130.13 139.72 131.64 136.88C134.89 130.76 139.77 125.16 143.65 119.39C145.63 116.44 147.31 112.62 150.04 110.28C151.8 108.77 154.7 108.81 156.75 109.54ZM106.46 149.25C111.94 149.75 117.42 150.25 122.9 150.75C122.9 152.18 122.9 153.61 122.9 155.04C117.28 157.59 108.84 156 102.75 156.11C100.23 156.16 97.17 156.21 96.37 153.27C95.51 150.1 98.84 146.22 100.77 144.02C105.24 138.92 114.36 131.16 116.92 125.19C119.28 119.7 112.76 112.97 107.78 116.51C104.9 118.56 106.38 123.91 104.89 126.81C103.51 126.81 102.13 126.81 100.75 126.81C95.83 112.47 113.79 102.25 121.86 115.38C127.84 125.1 118.06 134.95 111.88 141.63C109.81 143.87 106.68 146.1 106.46 149.25ZM150.75 120.72C148.8 121.58 147.76 123.62 146.53 125.29C143.77 129.03 136.7 136.91 136.12 141.25C138.23 142.73 149.51 142.64 151.75 141.33C153.06 136.83 152.11 130.91 151.92 126.25C151.84 124.37 152.34 121.92 150.75 120.72Z" fill="#4f6f19" fill-rule="evenodd" stroke="#4f6f19" stroke-width="0.25" stroke-linejoin="round"/>
</svg>