<?xml version="1.0" encoding="UTF-8"?>
<svg xmlns="http://www.w3.org/2000/svg" viewBox="0 0 227 232" width="227" height="232">
<path d="M53.38 4.24C59.77 3.78 66.27 3.85 72.37 5.81C77.48 7.45 82.54 10.09 86.5 13.74C90.08 17.04 93.18 20.32 95.73 24.51C99.74 31.11 100.99 37.99 101.24 45.62C101.96 66.99 92 84.21 83.16 102.88C78.55 112.63 74.63 122.69 69.44 132.18C66.96 136.72 65.08 140.61 59.24 140.81C52.99 141.03 50.05 136.57 47.7 131.55C43.71 123.04 39.61 114.57 35.73 106C23.87 79.81 2.65 44.7 26.27 18.52C29.43 15.02 32.91 12.1 36.99 9.73C42.08 6.77 47.47 4.66 53.38 4.24ZM57.75 134.5C61.83 134.56 62.96 129.78 64.32 126.57C67.91 118.1 71.97 109.59 76.17 101.4C88.34 77.67 107.65 40.17 81.25 19C78.21 16.56 74.9 14.43 71.23 13.05C66.36 11.23 61.43 10.79 56.25 10.87C37.02 11.19 23.52 28.92 23.49 47.25C23.46 63.89 31.25 77.72 37.78 92.44C40.09 97.64 42.2 102.94 44.68 108.07C47.61 114.1 51.15 119.84 53.68 126.07C54.79 128.79 55.41 132.61 57.75 134.5ZM70.07 40.98C74.06 40.98 78.05 40.98 82.03 40.98C82.99 42.31 84.3 43.78 84.92 45.32C86.86 50.16 86.88 60.84 81.19 63.45C77.59 65.1 72.99 63.36 69.22 64.25C68.9 68.72 68.57 73.19 68.25 77.66C65.2 79.39 49.89 80.29 48.22 76.57C46.65 73.05 48.56 68 47.65 64.25C43.43 63.5 38.4 65.11 34.54 62.71C29.18 59.37 29.69 45.12 35.06 41.8C38.3 39.8 43.21 41.39 46.81 40.75C47.76 37.02 45.51 31.14 47.61 27.87C48.51 26.47 50.75 26.31 52.28 26.2C55.35 25.98 66.45 25.07 68.34 27.4C71.4 31.18 68.64 36.81 70.07 40.98ZM62.68 32.75C60.5 31.43 56.18 31.64 53.88 32.75C53.88 37.47 53.88 42.19 53.88 46.91C49.31 48.81 42.91 44.78 38.71 47.75C37.5 50.39 37.5 55.12 38.8 57.75C43.12 59.86 49.57 55.89 53.67 58.75C54.61 63.4 52.46 68.61 54.25 73.04C57.19 73.04 60.12 73.04 63.06 73.04C63.06 68.28 63.06 63.51 63.06 58.75C70.38 55.59 81.19 62.83 78.91 49.26C78.26 45.37 66.7 47.37 63.25 46.55C61.04 42.72 63.34 36.98 62.68 32.75ZM226.92 71.01C226.92 123.81 226.92 176.62 226.92 229.42C212.82 230.75 198.49 230.57 184.25 230.59C178.78 230.59 170.86 232.04 165.84 229.75C164.94 228 165.13 225.9 166.15 224.25C184.37 224.08 202.58 223.92 220.8 223.75C222.13 220.93 221.27 216.85 221.24 213.74C221.15 206.08 221.04 198.41 220.92 190.75C220.5 164.26 220.95 137.74 221.08 111.25C221.13 103.08 221.03 94.92 221.13 86.75C221.16 83.45 222 78.66 220.41 75.75C217.19 74.96 213.56 75.43 210.25 75.46C201.91 75.51 193.59 75.75 185.25 75.93C179.39 76.07 172.07 75.06 166.46 76.75C163 92.25 159.53 107.75 156.06 123.25C173.87 123.58 191.67 123.92 209.48 124.25C210.51 126.06 210.73 128.25 210.12 130.25C200.49 130.54 190.87 130.83 181.25 131.11C179.48 133.29 178.51 140.68 177.9 143.73C176.28 151.74 174.28 159.66 172.85 167.71C172.33 170.62 170.98 173.26 171.25 176.25C184.32 176.58 197.4 176.92 210.47 177.25C210.26 179.08 210.06 180.92 209.85 182.75C203.81 184.59 187.87 183.15 180.75 183.19C177.93 183.21 171.74 182.19 169.57 184.34C167.9 186.01 167.39 189.99 166.87 192.2C165.45 198.19 164.65 204.47 162.75 210.33C160.68 211.35 158.1 210.97 156.15 209.75C155.63 204.2 157.88 197.26 159.01 191.75C161.89 177.62 165.92 163.81 169.04 149.76C170.32 143.94 173.13 137.28 173.25 131.38C169.52 129.96 163.78 130.81 159.75 130.81C150.42 130.83 141.08 130.79 131.75 130.7C127.35 130.66 120.82 129.48 116.75 131.31C114.97 134.35 111.22 151.26 111.75 154.62C119.91 157.38 138.28 152.47 145.75 156.13C146.28 157.81 146.15 159.1 145.25 160.61C133.42 161.1 121.58 161.6 109.75 162.1C107.23 166.09 106.82 172.94 105.77 177.57C103.52 187.47 101.17 197.33 98.91 207.23C98 211.21 95.02 219.92 95.75 223.53C117.36 223.94 138.97 224.34 160.59 224.75C160.61 226.42 160.63 228.08 160.64 229.75C157.29 230.99 152.83 230.23 149.25 230.26C141.08 230.32 132.92 230.42 124.75 230.49C96.41 230.76 68.1 230.5 39.75 230.37C30.59 230.33 21.41 230.39 12.25 230.21C9.79 230.16 4.4 230.76 2.6 228.64C0.82 226.55 1.26 221.82 1.18 219.25C0.91 211.09 0.93 202.91 0.89 194.75C0.73 162.91 1.13 131.09 1.18 99.25C1.19 92.97 -0.05 77.99 2.1 72.83C3.74 68.89 10.57 68.98 13.75 70.56C13.85 71.63 13.94 72.69 14.04 73.75C12.11 74.25 10.18 74.75 8.24 75.25C8.25 124.73 8.25 174.21 8.25 223.7C13.86 225.15 20.97 224.01 26.75 223.88C39.57 223.58 52.43 223.9 65.25 223.88C70.44 223.87 83.08 224.99 87.34 223.25C88.81 215.74 90.28 208.22 91.75 200.71C88.77 198.99 79.11 200.24 75.25 200.25C61.92 200.27 48.58 200.58 35.25 200.28C30.65 200.18 23.68 201.42 19.57 199.25C18.55 197.28 18.7 194.78 19.54 192.75C23.26 190.77 33.72 191.98 38.25 191.98C50.92 191.98 63.58 192.03 76.25 192.01C81.35 192 88.27 193.31 93.15 191.85C96.07 190.97 97.98 177.08 98.67 173.85C101.77 159.44 105.09 145.11 108.55 130.76C109.62 126.32 113.36 116.59 112.25 112.52C105.58 112.04 98.92 111.55 92.25 111.07C92.25 109.82 92.25 108.57 92.25 107.31C97.18 103.08 108.89 108.29 114.75 105.29C117.12 100.03 116.14 93.39 118.38 88.14C119.59 85.29 123.7 85.39 125.64 87.25C123.42 99.25 121.2 111.25 118.98 123.25C122.62 124.89 135.98 123.76 140.75 123.8C142.62 123.81 146.27 124.5 147.68 122.95C149.18 121.31 150.57 112.81 151.08 110.27C153.25 99.59 158.29 87.48 158.56 76.75C155.77 75.57 152.24 76.48 149.22 76.2C139.01 75.27 128.51 75.98 118.25 75.97C114.27 75.96 107.12 77.16 103.84 74.75C103.97 73.14 104.11 71.52 104.25 69.91C107.1 68.64 111.16 69.46 114.25 69.49C120.75 69.55 127.25 69.47 133.75 69.43C155.58 69.28 177.41 69.22 199.25 69.27C206.11 69.28 221.33 67.91 226.92 71.01ZM40.61 127.75C43.22 133.13 34.1 136.4 36.38 142.35C40.58 153.28 57.65 150.25 66.75 150.01C70.88 149.89 76.41 150.07 79.21 146.45C81.48 143.51 81.54 138.19 79.69 135.05C78.77 133.47 76.81 132.32 76.21 130.58C75.71 129.12 76.12 127.07 77.86 126.69C82.91 125.59 87.3 133.12 87.95 137.25C89.61 147.84 90.38 162.81 81.81 170.57C77.23 174.72 68.96 173.08 63.25 173.08C52.35 173.07 36.85 176.5 31.23 164.54C28.32 158.37 27.48 141.06 30.09 134.82C31.61 131.18 36.2 125.01 40.61 127.75ZM80.75 156.22C77.81 154.64 73.03 156.65 69.75 156.8C62.12 157.14 54.37 157.22 46.75 156.65C43.52 156.4 39.34 154.83 36.32 156.25C34.5 159.88 38.84 165.39 42.3 166.44C45.34 167.36 49.09 166.99 52.25 167.03C58.11 167.1 73.81 168.74 78.36 165.6C80.83 163.89 81.38 158.83 80.75 156.22Z" fill="#547919" fill-rule="evenodd" stroke="#547919" stroke-width="0.25" stroke-linejoin="round"/>
</svg>