<?xml version="1.0" encoding="UTF-8"?>
<svg xmlns="http://www.w3.org/2000/svg" viewBox="0 0 217 232" width="217" height="232">
<path d="M216.92 124.53C216.92 133.18 216.92 141.83 216.92 150.48C214.91 152.14 213 159.63 211.67 162.41C208.21 169.61 203.52 176.19 200.27 183.49C198.42 187.62 197.98 192.81 195.26 196.51C190.63 202.81 182.78 194.57 179.42 196.23C179.13 196.38 177.4 199.06 177.23 199.41C176.66 200.54 177.07 202.52 177.02 203.75C176.86 207.14 176.23 210.34 176.33 213.75C176.51 219.7 178.77 226.28 171.66 228.95C168.49 230.13 163.14 229.1 159.75 229.07C150.75 229.02 141.75 228.86 132.75 228.83C102.42 228.75 72.08 228.87 41.75 228.85C32.75 228.84 23.75 228.9 14.75 229.02C9.86 229.09 5.13 229.89 2.29 224.98C1.02 222.77 2.04 215.13 1.97 212.25C1.69 200.59 1.73 188.91 1.77 177.25C1.89 144.09 1.66 110.91 1.63 77.75C1.62 67.92 1.37 58.08 1.4 48.25C1.42 43.77 0.8 38.34 2.29 34.04C4.84 26.69 12.81 26.97 19.25 26.95C29.58 26.92 39.92 26.99 50.25 26.82C53.85 26.76 58.86 27.78 62.28 26.61C63.88 26.06 65.94 19.36 67.11 17.35C70.13 12.15 75.11 7.11 81.25 6.03C91.87 4.17 102.05 6.04 108.68 15.06C110.08 16.97 112.02 19.16 112.79 21.41C113.37 23.12 113.1 25.83 115.28 26.44C119.47 27.62 125.4 26.63 129.75 26.54C138.75 26.35 147.75 26.48 156.75 26.54C163.06 26.58 171.24 26.73 175.72 32.04C180.11 37.24 179.52 44.34 179.58 50.75C179.7 63.58 179.44 76.42 179.6 89.25C179.63 92.14 178.75 104.24 180.15 106.16C181.04 107.37 184.44 106.53 185.75 106.47C190.44 106.27 196.11 105.52 200.61 107.18C205.99 109.16 210.43 113.55 213.42 118.34C214.62 120.24 215.32 123.04 216.92 124.53ZM83.45 11.25C76.44 12.56 72.54 20.58 70.84 26.63C70.42 28.1 70.79 31.44 69.83 32.57C69.06 33.48 66.32 33.03 65.25 33C60.92 32.9 56.58 32.87 52.25 32.9C51.14 32.9 47.97 32.44 47.24 33.45C46.47 34.53 46.92 37.46 46.89 38.75C46.78 43.58 47.03 48.42 46.84 53.25C46.79 54.71 45.8 58.5 47.54 59.21C50.01 60.21 61.38 59.28 64.75 59.27C78.58 59.24 92.42 59.3 106.25 59.31C112.41 59.31 118.6 59.14 124.75 59.4C126.32 59.46 130.02 60.35 131.18 58.95C132.7 57.11 131.56 51.53 131.51 49.25C131.42 45.43 131.49 41.57 131.64 37.75C131.68 36.65 132.09 34.48 131.07 33.67C130.01 32.83 127.41 33.27 126.11 33.25C123.03 33.19 110.62 34.13 108.71 32.54C107.43 31.47 108.05 25.49 107.31 23.41C103.7 13.32 93.66 9.34 83.45 11.25ZM86.81 18.18C100.31 16.38 106.92 31.41 96.31 40.04C94.65 41.38 92.89 42.72 90.75 43.1C76.1 45.66 71.51 20.23 86.81 18.18ZM86.83 24.12C77.18 27.21 83.68 40.15 91.34 37.63C100.1 34.76 97.04 20.85 86.83 24.12ZM131.25 167.84C131.58 165.93 130.95 164.79 130.27 162.97C129.86 161.84 129.65 160.41 128.66 159.61C126.73 158.07 117.98 158.93 115.25 158.96C96.75 159.14 78.25 158.99 59.75 158.97C54.42 158.97 49.08 158.95 43.75 158.98C42.2 158.99 39.34 159.75 38.99 157.75C38.85 156.97 38.68 154.73 39.42 154.21C40.32 153.58 42.69 154.04 43.75 154.04C47.42 154.03 51.08 154.06 54.75 154.03C72.25 153.92 89.75 153.98 107.25 153.98C112.08 153.99 116.92 154.04 121.75 154.01C123.03 154.01 125.91 154.37 126.28 152.68C126.6 151.21 125.13 146.84 123.6 146.23C120.9 145.15 105.72 146.07 101.75 146.06C99.99 146.05 95.16 146.89 94.33 144.88C94.01 144.11 94.18 143.06 94.2 142.25C94.26 137.81 98.79 139.03 102.25 139.02C107.75 139.01 113.25 139.06 118.75 139.03C120.2 139.02 123.39 139.78 124.59 138.83C125.65 138 125.23 133.97 125.08 132.75C124.76 130.19 121.26 131.08 119.25 131.08C113.08 131.09 106.92 131.06 100.75 131.07C99 131.08 94.39 131.97 94.02 129.75C93.23 125 98.02 126.15 101.25 126.12C108.81 126.03 116.73 126.87 124.25 126.05C126.21 125.83 128.53 119.55 127.57 118.17C126.27 116.29 118.46 117 116.25 117.01C105.08 117.05 93.92 116.97 82.75 117C80.53 117 69.55 117.57 69.05 115.73C68.82 114.89 68.68 112.85 69.51 112.29C70.98 111.29 81.84 112.04 84.25 112.03C95.75 111.96 107.25 111.98 118.75 111.98C124.21 111.98 130.36 112.78 135.74 111.9C138.51 111.45 138.5 107.43 141.25 106.96C144.56 106.4 148.39 106.92 151.75 106.92C152.66 106.91 155.09 107.31 155.71 106.5C156.71 105.21 156.07 94.93 156.06 92.75C156.06 91.62 155.48 89.11 156.54 88.32C157.46 87.64 159.67 87.85 160.75 87.96C163.47 88.22 162.61 91.63 162.61 93.75C162.61 96.1 161.92 107.38 163.26 108.49C164.41 109.45 166.8 109.25 168.25 109.29C169.28 109.32 170.79 109.56 171.73 109.02C173.19 108.18 172.41 106.13 172.34 104.75C172.13 100.59 172.36 96.41 172.27 92.25C171.98 78.25 172.26 64.25 172.07 50.25C172.01 45.62 172.66 37.55 167.7 35.06C161.35 31.88 152.21 33.33 145.28 33.25C143.25 33.23 138.47 32.46 138.08 35.25C137.91 36.42 137.8 44.33 138.43 44.79C139.65 45.68 143.27 44.99 144.75 45C150.34 45 155.92 44.18 159.85 48.88C163.57 53.32 162.06 65.56 162.04 71.25C162.03 73.11 162.97 78.18 160.59 78.76C155.35 80.02 156.18 75.95 156.16 72.25C156.14 67.09 156.19 61.91 156.07 56.75C156.02 54.55 156.08 52.13 153.61 51.21C150.25 49.95 145.28 50.76 141.75 50.82C140.67 50.84 138.61 50.56 138.16 51.83C137.29 54.24 139.35 64.29 136.73 64.93C131.59 66.19 123.22 65.03 117.75 65.03C104.42 65.04 91.08 65.06 77.75 65.01C69.08 64.98 60.42 64.95 51.75 64.98C48.96 64.99 43.72 65.94 41.23 64.54C38.35 62.93 41.54 53.93 39.77 51.45C39.1 50.52 36.74 50.8 35.75 50.79C33.44 50.77 24.52 50.23 23.36 52.1C22.13 54.09 22.85 57.98 22.86 60.25C22.88 67.08 22.88 73.92 22.91 80.75C23.01 105.75 22.89 130.75 22.89 155.75C22.89 163.25 22.93 170.75 22.93 178.25C22.93 180.12 22.08 185.04 23.22 186.57C23.92 187.5 27.19 186.97 28.25 186.97C31.97 186.98 39.6 185.65 42.55 188.69C44.63 190.83 41.65 205.07 43.33 207.45C43.98 208.36 46.76 207.87 47.75 207.87C51.61 207.87 56.37 207.16 60.03 208.25C59.96 211.44 59.28 209.85 57.3 211.16C56.64 211.61 57.14 212.37 56.59 212.72C55.22 213.58 47.01 212.78 44.75 212.84C43.09 212.88 40.33 213.61 38.76 213.07C37.71 212.7 38.31 212.1 37.76 211.44C37.4 211.02 36.5 211.04 36 210.75C34.2 209.68 33.53 207.74 32.62 206.15C30.93 203.21 26.7 200.3 24 198.74C22.71 197.99 22 196.28 20.74 195.48C19.27 194.54 17.23 193.72 16.32 191.96C15.63 190.6 16.33 184.22 16.29 182.25C16.1 173.42 16.13 164.58 16.13 155.75C16.12 132.92 16.22 110.08 16.22 87.25C16.22 78.04 14.73 61.16 16.67 52.85C18.59 44.64 26.48 45.05 33.25 45C34.74 44.99 38.26 45.61 39.51 44.72C40.12 44.28 40.22 35.82 39.88 34.78C39.24 32.85 35.78 33.42 34.25 33.41C28.27 33.34 22.22 33.32 16.25 33.67C13.66 33.82 10.05 33.73 8.21 35.96C5.81 38.87 6.04 44.71 5.92 48.25C5.56 58.57 5.77 68.93 5.68 79.25C5.48 101.08 5.56 122.92 5.53 144.75C5.53 146.37 5.11 147.7 4.96 149.25C4.13 157.92 4.99 167.04 4.99 175.75C4.98 179.3 4.48 183.24 5.01 186.75C5.19 187.9 5.96 188.53 6.08 189.75C6.84 197.25 6.12 205.21 6.1 212.75C6.1 215.33 5.41 218.75 6.09 221.23C6.83 223.96 9.55 223.22 10.06 226.25C18.47 227.19 27.28 226.46 35.75 226.48C52.75 226.51 69.75 226.58 86.75 226.5C95.12 226.45 103.6 226.88 111.84 227.07C112.83 227.1 113.7 226.58 114.75 226.74C126.87 228.62 139.8 227.97 152.25 227.82C158.03 227.75 165.62 228.38 171.08 226.27C172.74 225.63 175.32 222.32 174.28 220.4C173.98 219.85 173.33 220.01 173.06 219.26C172.64 218.09 172.9 216.47 172.9 215.25C172.9 204.25 173.03 193.26 172.95 182.25C172.93 180.06 173.42 170.3 171.54 169.24C167.28 166.85 163.73 173.58 163.1 176.77C161.92 182.79 162.7 192.29 162.48 198.75C162.39 201.44 162.94 205.51 160.92 207.65C160.44 208.16 159.78 207.82 159.32 208.18C158.89 208.52 158.96 209.46 158.68 209.96C157.61 211.86 154 212.34 152.5 211.25C155.65 210.73 161.64 207.07 158.75 203.3C158.42 204.4 158.08 205.5 157.75 206.59C156.84 204.74 158.23 201.48 157.12 200.12C156.02 198.75 152.41 199.45 150.79 198.94C147.48 197.88 144.92 194.91 143.25 192.02C141.37 188.75 138.9 177.01 136.45 175.31C132.34 172.48 115.32 177.64 118.2 169.36C118.9 167.35 128.73 168.46 131.25 167.84ZM139.75 84.26C139.94 85.28 140.65 88.08 139.63 88.84C138.64 89.58 135.93 89.1 134.75 89.1C130.42 89.09 126.08 89.08 121.75 89.08C101.58 89.07 81.42 89.08 61.25 89.04C55.58 89.03 49.92 89.04 44.25 89.03C41.77 89.02 39.03 89.87 38.92 86.75C38.79 83 41.88 84.06 44.75 84.09C50.58 84.15 56.42 84.07 62.25 84.07C79.58 84.08 96.92 84.08 114.25 84.08C122.18 84.08 132.07 82.97 139.75 84.26ZM139.75 102.94C132.2 104.12 122.54 102.96 114.75 102.97C97.25 102.98 79.75 102.98 62.25 102.94C56.75 102.93 51.25 102.95 45.75 102.89C44.23 102.87 40.86 103.53 39.57 102.68C38.41 101.91 38.96 99.38 39.07 98.25C44.53 96.78 57.93 97.91 64.25 97.92C81.92 97.96 99.58 97.94 117.25 97.93C122.75 97.92 128.25 97.95 133.75 97.97C135.15 97.98 138.38 97.39 139.56 98.23C140.7 99.04 139.95 101.87 139.75 102.94ZM39.76 112.05C41.13 111.55 43.29 111.99 44.75 111.99C48.12 111.99 56.1 111.09 58.96 112.3C60.23 112.84 60.36 115.09 59.93 116.22C59.41 117.58 56.45 117.03 55.25 117.03C51.42 117.02 47.58 117.03 43.75 117.03C42.67 117.03 40.32 117.47 39.4 116.81C38.39 116.1 38.61 112.46 39.76 112.05ZM191.33 112.22C187.29 112.58 183.61 114.01 179.72 114.91C174.83 116.05 169.23 116.05 164.25 115.58C156.63 114.86 146.5 109.29 139.38 114.65C133.45 119.12 131.1 127.19 130.85 134.25C130.18 152.91 137.96 160.74 145.67 176.09C147.46 179.65 148.87 183.18 149.72 187.09C150.13 189 150.49 191.77 152.51 192.72C156.91 194.79 156.37 187.27 156.47 184.75C156.82 175.81 158.36 162.58 170.25 162.79C185.84 163.06 183.67 175.28 185.39 186.75C185.68 188.68 187.8 196.33 191.38 193.6C192.48 192.77 191.91 189.5 192.1 188.27C192.78 183.77 194.35 179.12 196.22 174.95C202.93 159.99 213.63 147.15 210.19 129.64C208.47 120.89 201.15 111.34 191.33 112.22ZM83.75 130.9C73.18 132.25 60.1 131.06 49.25 131.08C47.58 131.08 40.44 131.65 39.38 130.88C38.67 130.35 38.82 128.53 38.92 127.75C39.31 124.86 47.34 126.2 49.75 126.19C57.92 126.16 66.08 126.22 74.25 126.21C76.5 126.21 81.29 125.22 83.24 126.45C84.56 127.27 84.05 129.66 83.75 130.9ZM83.75 145.79C80.25 146.48 76.32 146.02 72.75 146.03C65.42 146.05 58.08 146.03 50.75 146.03C48.78 146.03 40.81 146.64 39.52 145.7C38.53 144.98 38.82 141.34 39.05 140.26C39.45 138.43 49.13 139.12 51.25 139.11C59.25 139.07 67.25 139.03 75.25 139.08C77.18 139.1 81.99 138.31 83.53 139.71C84.68 140.77 83.98 144.46 83.75 145.79ZM39.81 169.1C42.05 168.18 52.66 168.98 55.75 168.98C68.58 168.97 81.42 168.98 94.25 168.95C96.76 168.94 107.95 168.18 109.51 169.27C110.09 169.67 110.1 170.62 110.08 171.25C110.06 171.76 110.03 172.5 109.6 172.86C108.63 173.64 106.4 173.19 105.25 173.16C101.42 173.06 97.58 173.18 93.75 173.14C78.57 172.98 63.42 173.52 48.25 173.94C46.12 174 41.79 174.72 39.89 173.8C38.72 173.24 38.66 169.57 39.81 169.1ZM25.75 195.58C25.78 197.87 31.86 203.87 34.25 204.32C33.4 201.08 28.69 197.07 25.75 195.58ZM148 208.75C146.16 209.09 143.66 208.83 142.63 210.25C144.69 211.97 149.05 211.3 151.65 211.25C151.38 211.69 151.19 212.63 150.66 212.93C149.25 213.74 136.3 212.98 133.75 212.94C117.75 212.73 101.75 212.92 85.75 212.88C83.68 212.87 72.92 213.48 71.77 212.58C70.85 211.87 71.01 209.29 71.02 208.25C76.51 206.69 83.99 207.9 89.75 207.9C102.58 207.9 115.42 207.86 128.25 207.86C132.33 207.87 145.11 206.86 148 208.75Z" fill="#62812e" fill-rule="evenodd" stroke="#62812e" stroke-width="0.25" stroke-linejoin="round"/>
</svg>