<?xml version="1.0" encoding="UTF-8"?>
<svg xmlns="http://www.w3.org/2000/svg" viewBox="0 0 256 253" width="256" height="253">
<path d="M209.03 30.25C209.73 33.95 213.25 37.02 215 40.26C216.3 42.66 215.76 45.42 217.25 47.71C224.43 49.63 232.84 47.77 240.25 48.58C243.57 48.94 247.14 50.98 246.94 54.75C246.63 60.45 239.04 64.55 239.88 70.25C240.6 75.14 251.11 84.12 245.35 89.08C243.49 90.68 240.04 90.45 237.75 90.61C231.3 91.05 223.41 89.25 217.22 91.25C215.82 94.42 216.58 98.36 216.64 101.75C216.75 108.58 216.66 115.42 216.63 122.25C216.51 148.92 216.78 175.58 216.71 202.25C216.68 210.12 218.27 229.01 215.34 235.61C212.88 241.16 207 241.77 201.75 241.96C192.43 242.31 183.08 242.32 173.75 242.37C136.09 242.58 98.41 242.41 60.75 242.36C51.59 242.35 42.39 242.65 33.24 242.21C29.47 242.03 24.94 242.15 22.47 238.78C18.62 233.54 18.98 227.48 18.89 221.25C18.75 211.25 18.73 201.25 18.63 191.25C18.25 149.75 19.49 108.25 18.63 66.75C18.37 54.26 17.95 41.74 18.53 29.25C18.74 24.8 19.69 17.78 24.79 16.1C29.53 14.54 35.56 15.23 40.49 15.25C49.91 15.28 59.33 15.46 68.75 15.47C101.25 15.51 133.75 15.66 166.25 15.62C177.58 15.6 188.92 15.58 200.25 15.56C203.77 15.56 210.25 14.41 213.37 16.37C218.49 19.6 210.17 27.5 209.03 30.25ZM204.75 22.31C199.63 21.09 193.95 21.83 188.72 21.75C178.4 21.57 168.07 21.53 157.75 21.49C126.43 21.38 95.07 21.02 63.75 21.84C54.93 22.08 46.08 21.79 37.25 21.84C34.62 21.85 29.43 21.02 27.44 23.19C25.57 25.23 26.04 30.19 25.97 32.75C25.91 35.09 25.45 37.6 26.48 39.75C30.08 41.4 35.8 40.38 39.72 40.26C48.55 40 57.42 40.29 66.25 40.31C98.08 40.4 129.91 40.97 161.75 40.67C171.57 40.58 181.43 40.5 191.25 40.69C195.11 40.76 200.8 41.87 204.28 40.25C204.28 38.54 204.28 36.83 204.28 35.12C199.69 33.68 193.94 34.58 189.14 34.76C181.69 35.05 174.2 34.87 166.75 34.88C140.41 34.92 114.08 34.49 87.75 34.23C78.79 34.14 69.72 34.38 60.77 33.79C57.83 33.6 51.65 33.53 53.75 29.06C56.2 27.69 60.42 28.33 63.25 28.32C71.08 28.28 78.92 28.39 86.75 28.44C114.75 28.6 142.75 28.1 170.75 28.2C179.54 28.23 188.48 28.67 197.25 28.07C201.08 27.81 205.78 27.54 204.75 22.31ZM207.75 47.48C204.98 46.78 201.83 47.3 198.97 47.25C189.74 47.09 180.49 47.19 171.25 47.19C145.58 47.2 119.92 47.12 94.25 47.14C82.91 47.15 71.58 47.29 60.25 47.47C55.29 47.55 48.98 46.58 44.25 48.08C42.34 51.85 43.65 58.09 43.66 62.25C43.71 73.75 43.74 85.25 43.77 96.75C43.88 128.42 43.71 160.08 43.83 191.75C43.87 201.58 43.87 211.42 43.88 221.25C43.89 225.52 43.06 230.67 44.21 234.75C47.56 236.02 52.16 235.24 55.75 235.27C64.08 235.32 72.42 235.23 80.75 235.25C108.75 235.32 136.75 235.34 164.75 235.32C174.58 235.31 184.42 235.2 194.25 235.2C198.31 235.2 203.97 236.08 207.75 234.59C209.94 231.34 208.9 225.53 208.9 221.75C208.89 211.75 209 201.75 208.95 191.75C208.79 164.25 208.91 136.75 208.92 109.25C208.92 100.58 208.79 91.91 208.89 83.25C208.93 79.32 208.26 74.93 209.39 71.17C211.52 71.17 213.65 71.17 215.79 71.17C216.11 75.37 216.43 79.58 216.75 83.79C223.75 83.79 230.75 83.79 237.75 83.79C238.53 78.84 231.9 74.84 231.85 69.75C231.8 64.72 237.18 62.41 237.95 57.75C235.83 55.89 220.1 55.88 217.25 56.98C216.58 59.52 215.92 62.06 215.25 64.61C213.42 64.61 211.58 64.61 209.75 64.61C209.08 58.9 208.42 53.19 207.75 47.48ZM35.91 48.25C33.26 47.26 29.28 46.91 26.75 48.25C25.33 52.08 26.43 57.21 26.41 61.25C26.34 71.25 26.33 81.25 26.31 91.25C26.27 125.42 26.31 159.58 26.32 193.75C26.32 203.25 26.25 212.75 26.42 222.25C26.48 225.54 25.59 230.61 27.18 233.61C28.44 235.98 33.73 235.37 35.75 234.65C37.29 231.06 36.41 225.65 36.42 221.75C36.47 212.25 36.33 202.75 36.38 193.25C36.55 160.42 36.46 127.58 36.57 94.75C36.6 83.92 36.55 73.08 36.51 62.25C36.5 58.14 37.56 52 35.91 48.25ZM147.05 80.75C143.01 82.11 137.94 79.14 133.86 78.31C127.53 77.03 121.52 77.2 115.32 79.13C86.07 88.26 79.5 125.43 104.07 144.67C112.73 151.45 124.25 154.3 135.15 151.83C147.99 148.93 160.77 136.3 162.85 123.22C164.26 114.39 163.57 104.14 158.83 96.4C156.91 93.26 153.08 90.71 151.91 87.25C153.9 80.64 159.25 85.25 161.83 88.4C167.11 94.85 170.35 102.93 170.96 111.25C173.85 150.48 129.02 173.26 98.07 149.68C78.06 134.43 76.78 103.84 92.66 85.4C99.24 77.75 108.97 73.82 118.44 71.24C126.53 69.03 134.02 70.68 141.64 73.61C144.75 74.81 149.66 76.61 147.05 80.75ZM138.88 102.25C142.8 103.77 147.36 101.43 151.38 103.36C156.76 105.94 155 115.54 154.73 120.35C154.63 122.15 154.84 125.21 153.12 126.38C149.49 128.84 143.21 125.62 139.25 127.61C138.36 131.88 139.87 137.72 137.28 141.54C134.75 145.28 117.82 145.13 115.2 141.56C112.25 137.55 115.46 131.6 113.81 127.25C109.46 125.73 104.08 128.47 99.94 126.3C97.92 125.24 97.95 122.75 97.84 120.75C97.59 116.37 95.74 107.03 99.8 104.03C103.89 101.01 109.62 104.05 113.75 101.94C114.91 97.46 112.94 92.46 115.19 88.25C120.12 86.52 127.17 86.82 132.36 87.27C134.13 87.43 136.98 87.59 137.91 89.35C140.05 93.42 137.1 98.32 138.88 102.25ZM131.25 93.96C128.25 93.96 125.24 93.96 122.24 93.96C119.62 98.55 123.29 105.79 120.25 109.72C115.28 109.99 109.64 107.63 104.95 110.25C104.46 111.43 104.44 112.46 104.4 113.75C104.05 125.75 114.75 116.4 120.46 121.25C120.84 126.58 121.22 131.92 121.59 137.25C124.32 138.13 128.72 138.49 131.12 136.75C131.49 131.33 131.87 125.92 132.25 120.5C137.12 120.25 142 120 146.87 119.75C148.27 117.31 148.35 112.86 147.34 110.25C143.34 107.38 136.83 109.51 132.22 108.75C129.44 104.67 132.88 98.5 131.25 93.96ZM181.75 184.04C183.01 187.72 180.76 189.69 177.25 189.95C171.13 190.41 164.89 190.01 158.75 190.09C136.09 190.36 113.41 190.34 90.75 190.16C85.79 190.12 66.74 192.84 72.24 183.25C78.21 181.64 91.97 182.87 98.75 182.9C116.41 182.97 134.09 183.08 151.75 182.93C158.58 182.87 165.42 182.88 172.25 183.05C175.3 183.13 178.96 182.68 181.75 184.04ZM161.02 196.92C161.02 198.41 161.02 199.9 161.02 201.39C156.25 203.19 149.34 202.09 144.25 202.1C132.58 202.12 120.92 202.15 109.25 202.09C103.74 202.06 96.04 203.36 91.04 200.81C91.04 199.46 91.04 198.1 91.04 196.75C97.59 194.79 105.94 196.11 112.75 196.1C123.42 196.07 134.08 196.08 144.75 196.15C149.85 196.19 156.14 195.39 161.02 196.92ZM134.1 218.77C134.1 219.93 134.1 221.09 134.1 222.25C130.55 224.15 121.24 224.48 118.05 221.75C117.91 220.5 117.73 219.07 119.08 218.34C121.69 216.94 131.4 217.6 134.1 218.77Z" fill="#4d7d19" fill-rule="evenodd" stroke="#4d7d19" stroke-width="0.25" stroke-linejoin="round"/>
</svg>