<?xml version="1.0" encoding="UTF-8"?>
<svg xmlns="http://www.w3.org/2000/svg" viewBox="0 0 159 244" width="159" height="244">
<path d="M122.58 12.96C122.22 13.89 121.86 14.82 121.5 15.75C121.5 16.06 121.5 16.38 121.5 16.69C117.36 18.02 109.42 16.42 104.45 17.25C94.68 18.88 85.43 23.84 75.21 22.7C62.4 21.26 48.4 13.29 35.53 18.29C25.71 22.1 20.32 31.75 17.64 41.33C10.59 66.58 21.22 86.06 32.72 107.52C35.24 112.23 37.79 116.93 39.87 121.85C40.72 123.84 41.32 127.86 43.04 129.21C45.12 130.84 49.76 130.1 52.25 130.15C60.41 130.31 68.58 130.26 76.75 130.29C85.47 130.34 94.2 130.18 102.92 130.25C105.6 130.28 111.2 131.27 113.49 129.74C115.12 128.65 115.16 125.87 115.96 124.23C118.41 119.16 120.69 114.06 123.32 109.07C134.04 88.77 145.98 67.32 139.77 43.43C138.62 38.99 136.81 34.26 134.45 30.32C132.85 27.65 129.55 25.17 128.85 22.25C134.66 19.57 138.35 24.05 141.11 28.66C146.44 37.58 147.24 48.53 147.14 58.75C147.02 71.39 144.44 83.3 138.9 94.66C133.96 104.8 127.09 114.23 123.01 124.76C120.87 130.3 120.07 136.35 119.87 142.25C119.74 145.98 120.42 151.49 118.64 154.87C117.53 156.97 113.66 157.41 111.91 159.25C112.78 162.19 115.35 164.82 117.62 166.25C117.77 170 117.93 173.75 118.08 177.5C117.64 177.43 117.19 177.35 116.75 177.28C114.17 181.96 108.86 183.64 110.25 189.95C111.51 190.62 112.78 191.29 114.04 191.96C114.68 194.81 115.31 197.65 115.95 200.5C117.38 209.64 110.75 210 105.75 216.07C104.77 216.13 103.79 216.19 102.81 216.25C99.12 219.82 95.44 223.39 91.75 226.96C90.99 227.22 90.22 227.49 89.46 227.75C87.25 232.08 87.01 231.11 82.95 233.18C81.66 233.84 80.8 235.61 79.75 236.56C78.84 236.43 77.92 236.29 77.01 236.16C76.67 235.69 76.34 235.22 76 234.75C74.66 234.24 73.32 233.73 71.98 233.22C71.49 232.83 70.99 232.43 70.5 232.04C68.83 230.44 67.17 228.85 65.5 227.25C65.33 227.32 65.16 227.4 64.99 227.47C64.8 227.31 64.61 227.14 64.42 226.97C64.03 226.32 63.64 225.66 63.25 225C62.33 224.08 61.42 223.17 60.5 222.25C60.32 222.26 60.14 222.27 59.97 222.28C59.73 222.22 59.49 222.16 59.25 222.1C58.97 221.15 58.69 220.2 58.42 219.25C57.78 219.08 57.14 218.92 56.5 218.75C56.17 218.72 55.83 218.69 55.5 218.67C53.26 216.76 45.83 218.68 42.25 217.24C41.86 216.49 41.47 215.75 41.08 215C41.07 211.67 41.07 208.33 41.07 205C42.28 204.12 43.07 202.75 44.27 201.8C45.77 200.62 47.62 199.91 49.13 198.75C47.09 192.76 39.44 191.73 38.75 184.75C38.51 185 38.28 185.25 38.04 185.5C37.71 183.57 37.29 180.19 38.03 178.31C38.86 176.21 41.6 176.43 42.57 174.81C44.78 171.1 46.45 164.96 44.78 160.4C43.3 156.33 38.58 155.41 36.97 151.75C35.51 148.43 36.33 143.35 36.3 139.75C36.28 135.05 35.51 130.76 33.83 126.37C28.91 113.49 20.51 102.27 15.13 89.64C8.16 73.31 5.19 54.11 11.25 36.98C17.75 18.62 33.3 8.66 52.77 11.32C63.28 12.76 73.07 17.68 83.98 15.74C93.68 14.01 102.78 11.03 112.75 11.17C115.11 11.2 121.45 10.8 122.58 12.96ZM111.76 138.25C106.68 137.37 100.92 138.21 95.75 138.22C84.92 138.23 74.08 138.22 63.25 138.28C58.16 138.31 48.64 136.87 44.25 139.15C43.01 142.41 43.15 147.01 44.42 150.25C47.86 152.27 58.4 151.08 62.75 151.12C73.25 151.22 83.75 151.22 94.25 151.2C99.9 151.2 106.44 152.02 111.93 150.75C113.31 148 113.28 140.94 111.76 138.25ZM51.55 170.06C51.45 170.62 51.34 171.19 51.24 171.75C54.46 171.9 62.47 169.19 64.5 170.87C60.08 171.83 55.66 172.79 51.24 173.75C54.48 175.83 61.16 173.89 64.61 172.75C64.73 172.1 64.84 171.45 64.95 170.8C66.14 171.55 65.82 171.88 66.06 173.25C61.89 176.22 54.66 176.47 49.7 177.91C47.63 178.52 44.98 178.41 43.86 180.63C43.23 181.88 43.29 183.29 43.7 184.58C45.27 189.55 52.94 187.29 56.79 186.66C69.95 184.49 83.15 182.58 96.25 179.98C100.11 179.22 108.08 178.3 111.27 176.75C112.42 174.5 112.38 170.72 110.75 168.67C103.39 167.17 92.33 170.48 84.68 171.3C81.77 171.61 77.09 173 74.5 171.56C82.55 170.29 90.61 169.02 98.66 167.75C92.18 167.27 79.56 167.97 73.5 169.85C73.28 169.65 73.07 169.45 72.85 169.25C73.48 168.88 74.12 168.52 74.75 168.15C75.75 167.94 76.75 167.72 77.75 167.5C78.33 167.41 78.91 167.32 79.48 167.23C80.07 166.8 80.66 166.37 81.25 165.94C83.5 165.75 85.75 165.56 88.01 165.37C90.01 166.71 97.06 165.52 99 164.25C96.89 164.1 92.66 165.21 91.5 163.35C95.17 161.81 107.31 164.29 107.32 158.75C104.53 155.96 97.9 157.28 94.25 157.27C84.09 157.25 73.91 157.68 63.75 157.54C59.86 157.49 53.24 156.38 49.97 158.75C50.06 162.08 50.16 165.4 50.25 168.73C50.68 169.17 51.12 169.61 51.55 170.06ZM109.66 162.75C108.19 161.54 103.32 163.52 101.08 163.75C104.05 164.42 107 164.37 109.66 162.75ZM100.24 182.25C97.92 181.28 96.15 182.32 93.81 182.75C96.43 183.05 97.73 183.24 100.24 182.25ZM105.67 184.25C100.63 183.75 95.13 186.05 90.12 186.78C83.42 187.76 76.83 189.24 70.16 190.32C64.49 191.23 57.86 191.71 52.56 194.01C52.56 195.59 52.56 197.17 52.56 198.75C58.36 199.15 64.13 197.11 69.75 196.03C78.16 194.41 86.74 192.88 95.24 191.85C100.41 191.22 106.61 190.97 105.67 184.25ZM104.92 192.75C103.43 191.46 100.31 192.36 98.37 192.71C93.03 193.69 87.32 195.37 81.96 195.75C87.33 197.31 92.89 195.07 98.25 194.47C100.44 194.23 103.37 194.37 104.92 192.75ZM109.25 195.25C104.6 194.82 99.84 196.38 95.25 197C83.22 198.6 71.13 200.49 59.28 203.15C55.52 203.99 44.06 203.88 45.18 210.17C45.94 214.43 57.68 212.45 60.75 212.15C72.78 210.94 84.9 208.99 96.68 206.34C101 205.36 106.06 205.35 110.03 203.25C111.05 200.77 110.63 197.53 109.25 195.25ZM81.38 196.25C74.65 195.5 67.13 197.91 60.77 199.64C58.24 200.33 55.52 200.04 52.93 200.75C55.96 201.89 58.17 200.88 61.22 200.31C66.89 199.24 76.56 199.27 81.38 196.25ZM86.47 211.22C83.75 211.22 81.03 211.22 78.31 211.22C80.44 212.89 83.86 212.27 86.47 211.22ZM99.55 212.25C92.73 210.9 82.47 214.67 75.25 215.14C72.14 215.34 67.76 215.13 65.35 217.25C67.95 222.4 73.85 227.19 78.25 230.84C80.75 230.75 82.42 228.59 84.18 226.93C87.65 223.67 98.14 215.92 99.55 212.25Z" fill="#849a35" fill-rule="evenodd" stroke="#849a35" stroke-width="0.25" stroke-linejoin="round"/>
</svg>