<?xml version="1.0" encoding="UTF-8"?>
<svg xmlns="http://www.w3.org/2000/svg" viewBox="0 0 208 249" width="208" height="249">
<path d="M183.75 34.06C182.21 35.58 180.23 36.35 178.37 34.88C167.32 26.1 163.48 20.3 147.75 20.89C137.58 21.26 130.34 24.86 120.74 26.96C113.8 28.48 106.32 28.55 99.25 28.13C84.05 27.21 67.63 17.23 52.2 21.39C44.26 23.53 38.99 31.4 34.18 37.41C29.88 42.78 25.85 48.53 23.2 54.92C15.36 73.76 20.22 97.91 28.4 115.85C32.12 124.01 42.98 133.7 51.75 126.99C53.1 125.95 55.06 124.65 55.73 123.01C57.27 119.23 56.6 114.23 56.52 110.25C56.37 102.46 55.98 94.53 56.48 86.75C56.98 78.85 59.43 72.35 68.25 71.81C88.47 70.57 109 71.69 129.25 71.73C136.47 71.74 146.97 69.57 151.72 76.03C157.29 83.62 154.55 102.85 154.83 112.25C155.05 119.55 155.92 125.69 163.44 128.78C172.14 132.35 181.82 118 183.96 111.24C189.07 95.14 192.51 79.47 189.76 62.43C189.07 58.16 188.16 53.62 186.71 49.55C186.07 47.73 185.01 46.12 184.55 44.25C185.76 41.84 188.84 41.09 191.25 42.09C194.32 46.35 196.31 56.29 197.24 61.56C200.58 80.67 197.92 101.26 188.85 118.61C186.54 123.02 184.14 127.28 180.67 130.93C179.2 132.47 176.27 133.23 175.65 135.34C174.59 138.89 175.36 143.1 175.38 146.75C175.43 154.05 175.39 161.47 173.81 168.63C170.16 185.19 161.57 195.97 155.16 210.88C151.72 218.9 148.21 234.15 140.52 238.75C131.79 243.97 123.7 238.35 120.74 230.01C116.8 218.88 121.75 192.71 104.25 191.97C97.31 191.67 93.92 198.92 93 204.75C91.4 214.84 92.85 235.07 81.51 239.75C76.56 241.79 68.07 241.09 64.66 236.61C61.84 232.9 61.74 227.67 60.33 223.38C59.34 220.36 57.91 217.43 56.74 214.48C51.14 200.36 40.77 189.34 39.07 173.75C38.43 167.85 33.34 161.47 36.59 155.25C38.11 154.5 39.18 154.55 40.75 155.14C44.3 160.87 44.13 170.81 46.37 177.36C50.52 189.54 59.43 199.67 63.97 211.77C65.96 217.07 68.49 231.96 73.38 234.37C80.08 237.67 82.72 228.09 83.44 223.74C85.76 209.6 83.03 191.32 100.4 186.2C103.92 185.17 107.27 185.55 110.76 186.48C124.65 190.2 125.43 208.08 126.26 219.9C126.64 225.26 127.71 236.39 135.53 234.75C141.58 233.49 144.75 216.03 147.1 210.33C151.72 199.1 159.56 189.4 163.68 177.91C166.69 169.56 167.19 161.03 167.62 152.25C167.85 147.57 168.77 141.6 167.75 137.08C165.87 136.14 163.95 136.3 161.94 135.77C156.99 134.46 151.3 130.37 149.11 125.64C145.22 117.24 146.92 102.97 147 93.75C147.03 90.32 148.29 83.19 145.82 80.44C143.36 77.7 132.88 78.6 129.25 78.58C113.74 78.5 98.26 78.27 82.75 78.65C79.24 78.73 66.94 77.9 64.84 80.56C62.93 82.97 63.79 88.84 63.73 91.76C63.56 100.12 65.66 116.32 62.84 123.63C60.83 128.85 54.77 134.04 49.46 135.72C47.15 136.45 44.61 136.16 42.43 137.25C41.71 140.81 43.26 149.16 36.81 147.25C33.97 143.91 37.24 137.97 35.53 135.22C34.32 133.27 31.14 132.74 29.47 131.28C26.59 128.77 23.79 124.57 22.08 121.18C14.3 105.84 10.85 87.83 11.14 70.75C11.22 66.45 10.12 61.04 11.22 56.87C11.77 54.76 12.97 52.91 13.61 50.8C13.94 49.72 13.75 48.41 14.17 47.39C14.46 46.67 15.42 46.27 15.77 45.58C19.32 38.5 28.52 27.89 35.6 23.81C36.42 23.34 36.83 22.35 37.53 21.77C38.53 20.94 47.18 15.44 48.31 15.08C57.56 12.11 74.08 14.56 83.25 17.47C86.39 18.46 89.6 20.28 92.84 20.79C101.04 22.08 111.52 22.93 119.66 20.83C125.1 19.42 130.15 16.28 135.75 14.95C149.26 11.72 163.08 13.97 174.4 21.81C177.95 24.27 184.81 29.21 183.75 34.06Z" fill="#84a931" fill-rule="evenodd" stroke="#84a931" stroke-width="0.25" stroke-linejoin="round"/>
</svg>