<?xml version="1.0" encoding="UTF-8"?>
<svg xmlns="http://www.w3.org/2000/svg" viewBox="0 0 252 248" width="252" height="248">
<path d="M238.84 12.25C238.84 22.42 238.84 32.59 238.84 42.76C233.43 43.95 227.29 42.94 221.75 42.95C218.88 42.95 216.28 43.27 216.38 39.75C219.61 37.44 229.57 39.41 233.96 38.75C233.96 31.83 233.96 24.9 233.96 17.98C205.31 17.98 176.66 17.98 148.01 17.98C148.01 24.9 148.01 31.83 148.01 38.75C157.26 39.67 166.94 38.91 176.25 38.9C179.87 38.9 184.95 38.03 188.25 39.55C190.4 44.52 180.97 43.03 178.25 43.04C167.52 43.08 152.14 44.4 141.98 42.87C141.98 41.26 141.98 39.64 141.98 38.03C137.4 38.03 132.83 38.03 128.25 38.03C127.61 40.85 128.87 49.58 126.77 51.03C123.85 53.03 119.24 49.99 115.94 52.25C115.94 54.92 115.94 57.58 115.94 60.25C118.57 60.92 121.2 61.58 123.83 62.25C123.83 64.75 123.83 67.25 123.83 69.75C126.78 71.39 129.67 71.03 132.64 72.08C137.27 73.71 142 77.91 145.38 81.37C157.45 93.7 156.78 102.62 156.69 119.25C156.67 122.87 157.59 126.59 156.86 130.2C156.18 133.52 154.4 136.38 153.29 139.54C151.62 144.33 150.65 149.27 148.74 154.01C145.45 162.21 139.83 170.15 138.23 178.92C134.99 196.68 136.21 227.93 116.53 236.75C113.94 237.92 111.06 238.66 108.2 238.77C104.8 238.9 100.54 239.16 97.54 237.21C92.53 233.95 91.2 227.17 91.16 221.75C91.09 211.88 92.26 202.1 92.52 192.25C92.78 182.69 93.65 174.22 81.25 176.23C80.23 178.63 77.78 179.28 77.13 181.78C76.1 185.76 77.36 190.48 77.89 194.26C78.3 197.16 77.48 200.37 78.14 203.22C79.5 209.18 80.77 215.37 80.62 221.75C80.48 228.3 77.04 236.58 69.75 238.06C50.06 242.08 39.55 222.08 36.87 205.77C35.88 199.77 31.27 185.03 41.75 186.13C43.6 188.75 43.58 192.9 44.25 196C46.93 208.45 45.4 229 62.25 231.15C64.55 231.44 66.94 231.75 69.14 230.84C75.24 228.31 73.26 219.56 73.05 214.25C72.5 200.32 61.42 170.23 84.75 169.93C87.18 169.9 89.69 169.64 92.07 170.23C94.27 170.76 94.59 171.72 96.1 173.16C100.21 177.07 100.75 178.85 100.78 184.75C100.84 196.09 97.99 207.04 97.86 218.25C97.83 220.6 97.15 224.45 98.18 226.61C100.7 231.85 108.53 232.97 113.61 230.81C117.82 229.01 122.37 220.66 123.83 216.62C124.71 214.18 124.2 210.93 124.7 208.35C125.17 205.84 125.96 203.42 126.23 200.87C127.6 187.91 130.3 174.55 135.23 162.45C137.97 155.73 141.25 149.13 144.31 142.55C145.74 139.47 147.76 136.82 148.74 133.51C150.7 126.89 150.43 119.07 150.05 112.25C149.86 109.03 149.72 105.6 148.73 102.49C145.49 92.34 134.03 77.09 122.02 80.29C122.02 82.52 122.02 84.75 122.02 86.98C112.44 87.31 101.78 85.14 92.32 87.16C86.53 88.4 82.29 93.26 76.25 94.03C72.07 94.56 61.85 96.32 64.89 88.75C68.23 86.48 75.18 88.63 77.21 84.75C74.43 80.73 67.44 78.78 62.91 77.78C44.19 73.65 25.58 85.8 21.31 104.11C17.31 121.24 24.15 138.7 31.24 154.03C33.79 159.55 41.74 174.17 39.83 179.75C38.05 180.19 35.14 180.43 33.65 179.08C31.99 177.57 31.59 174.42 30.81 172.38C29.36 168.56 27.35 164.82 25.67 161.09C16.61 141.02 6.49 116.26 16.26 94.49C24.31 76.58 45.91 65.83 65.15 70.17C69.86 71.23 74.54 73.67 78.62 76.15C80.86 77.52 83.51 79.78 86.25 79.72C89.85 77.28 86.98 66.89 88.25 62.7C90.59 62.05 92.94 61.4 95.28 60.75C95.28 57.75 95.28 54.75 95.28 51.75C91.32 51.25 87.35 50.75 83.38 50.25C81 45.67 82.14 27.71 82.3 21.75C82.39 18.77 82.09 14.89 83.75 12.33C91.57 10.56 104.38 12.08 112.75 12.05C117.13 12.03 122.87 11.11 126.98 12.64C126.98 14.42 126.98 16.2 126.98 17.97C131.64 17.97 136.3 17.97 140.97 17.97C140.97 16.07 140.97 14.16 140.97 12.25C147.67 10.64 155.85 11.75 162.75 11.71C177.58 11.63 192.42 11.78 207.25 11.77C214.37 11.76 233.06 10.58 238.84 12.25ZM119.89 19.25C115.21 17.96 109.92 18.98 105.1 18.74C100.89 18.54 95.9 17.5 91.93 19.25C90.41 23.11 90.18 39.38 91.5 43.25C93.86 44.46 97.07 43.73 99.67 43.74C106.04 43.78 113.75 44.8 119.89 43.25C119.89 35.25 119.89 27.25 119.89 19.25ZM113.75 23.21C114.25 25.1 114.31 27.05 113.34 28.75C110.49 29.66 99.79 29.67 97.25 28.3C96.4 26.6 96.55 24.94 97.25 23.21C101.19 20.97 109.74 21.2 113.75 23.21ZM141.41 25.03C136.93 25.03 132.45 25.03 127.96 25.03C127.26 26.56 127.18 27.66 127.75 29.25C131.02 30.26 138.41 30.62 141.41 28.75C141.41 27.51 141.41 26.27 141.41 25.03ZM113.59 33.75C114.42 35.65 114.23 37.91 113.28 39.75C109.38 41.36 92.36 42.16 97.53 33.75C101.57 32.31 109.63 32.06 113.59 33.75ZM211.01 39.75C211.02 40.78 211.2 41.81 210.24 42.51C208.72 43.6 195.35 43.14 193.45 42.34C193.45 41.48 193.45 40.61 193.45 39.75C195.35 38.35 209 38.39 211.01 39.75ZM108.84 51.75C106.86 51.08 105.37 51 103.39 51.75C103.39 54.75 103.39 57.75 103.39 60.75C105.44 61.62 106.85 62 108.84 60.8C108.84 57.79 108.84 54.77 108.84 51.75ZM115.93 68.97C109.36 68.97 102.79 68.97 96.22 68.97C95.6 72.82 95.17 77.23 96.3 81C102.85 81 109.39 81 115.93 81C115.93 76.99 115.93 72.98 115.93 68.97Z" fill="#426f17" fill-rule="evenodd" stroke="#426f17" stroke-width="0.25" stroke-linejoin="round"/>
</svg>