<?xml version="1.0" encoding="UTF-8"?>
<svg xmlns="http://www.w3.org/2000/svg" viewBox="0 0 228 254" width="228" height="254">
<path d="M210.25 51.31C212.58 52.41 217.23 51.67 218.8 53.94C220.43 56.29 220.16 60.54 220.21 63.25C220.32 70.23 220.34 77.27 220.13 84.25C220.04 87.09 220.36 90.98 218.72 93.47C216.93 96.19 212.81 94.99 210.46 96.75C208.46 101.43 210.8 112.52 205.66 115.93C202.16 118.25 196.97 116.54 193.25 118.13C191.7 120.46 189.97 127.42 188.77 130.53C185.91 137.94 182.21 145.03 179.14 152.36C177.3 156.77 175.65 164.07 173.01 167.75C163.66 169.96 168.52 159.58 169.89 155.21C172.58 146.6 176.88 138.27 181 130.26C182.84 126.69 186.28 122.59 186.25 118.45C179.94 115.06 170.93 119.58 164.55 116.25C161.99 110.42 166.92 101.89 165.03 96.75C157.44 93.61 142.85 98.06 134.25 94.61C132.53 91.68 132.99 87.55 132.97 84.25C132.94 77.25 132.9 70.25 133.03 63.25C133.09 60.19 132.68 55.98 134.12 53.25C139.87 51.05 150.38 52.44 156.75 52.32C159.55 52.26 162.88 52.97 165.25 51.35C165.71 45.03 162.48 38.33 164.25 32.01C168.66 31.42 173.07 30.84 177.48 30.25C174.26 25.69 166.46 23.4 161.27 21.95C137.89 15.39 127.33 23.13 109.01 35.26C102.26 39.73 93.74 42.68 85.75 43.98C83.28 44.38 76.95 44.79 78.22 40.42C78.83 38.3 81.55 38.08 83.29 37.59C86.62 36.64 96.67 35.21 98.41 32.75C97.04 29.79 91.02 27.06 88.08 25.68C74.97 19.5 64.5 18.34 50.25 22.03C45.2 23.33 33.5 31.44 31.83 23.25C34.39 19.26 40.86 17.32 45.13 15.83C59.19 10.93 74.88 11.66 88.58 17.19C94.37 19.53 99.37 24.56 105.62 25.7C108.15 26.17 112.22 23.31 114.41 22.18C121.15 18.71 127.74 14.43 135.37 13.2C148.56 11.09 164.12 13.11 175.66 20.09C179.56 22.44 186.81 28.96 189.96 30.27C194.29 32.07 203.24 29.5 206.72 32.53C211.53 36.71 208.24 46.1 210.25 51.31ZM26.75 28.92C31.28 31.62 27.86 35.44 25.74 38.49C16.32 52.07 13.52 63.54 15 80.25C17.88 112.63 40.09 139.26 45.6 170.75C48.68 188.29 46.76 214.28 62.09 226.67C72.7 235.25 89.27 236.98 89.97 219.25C90.62 202.9 85.76 186.68 86.22 170.29C86.6 156.94 91.8 148.43 106.25 148.05C118.07 147.74 125.35 158.42 125.48 169.25C125.65 182.43 123.23 195.67 121.85 208.74C121.09 215.87 120.43 224.46 125.64 230.12C128.45 233.16 132.9 233.21 136.75 232.88C149.82 231.73 156.73 219.46 160.2 208.4C161.38 204.65 162.19 196.4 167.99 198.76C171.71 200.27 168.84 207.05 168.08 209.78C165.36 219.45 160.81 229.09 152.03 234.77C148.3 237.17 144.6 238.67 140.25 239.5C128.12 241.83 115.97 236.33 114.09 223.25C111.72 206.83 117.06 189.69 117.56 173.25C117.85 163.91 116.72 155.13 105.25 155.04C95.5 154.95 93.87 164.53 93.98 172.25C94.2 187.93 100.93 210.82 96.94 225.23C91.09 246.33 66.44 242.23 54.02 229.73C39.72 215.34 40.78 185.82 36.71 167.08C34.18 155.39 29.06 144.94 24.14 134.12C15.97 116.2 8.03 96.71 7.16 76.75C6.58 63.53 8.99 48.59 16.78 37.54C19.15 34.17 22.36 29.43 26.75 28.92ZM202.62 51.75C203.31 50.15 203.06 48.49 203 46.75C202.95 44.76 203.52 41.22 202.19 39.55C200.49 37.4 188.39 38.21 185.25 38.13C181.55 38.04 175.36 37.03 172.25 39.17C172.66 43.37 173.08 47.56 173.49 51.75C175.76 52.93 178.74 52.46 181.25 52.44C186.97 52.39 197.59 53.81 202.62 51.75ZM212.62 59.51C207.72 58.09 201.36 59.04 196.25 59.04C185.09 59.06 173.91 59.32 162.75 59.11C157.29 59 146.72 57.78 141.89 59.75C140.4 62.9 140.96 67.32 141.02 70.75C141.12 76.49 140.01 82.99 141.25 88.59C145.87 89.99 151.91 88.98 156.75 89.03C168.42 89.13 180.08 88.95 191.75 89C198.01 89.03 206.79 90.57 212.62 88.25C212.62 78.67 212.62 69.09 212.62 59.51ZM202.29 96.75C199.05 95.12 194.29 96.22 190.75 96.28C187.67 96.34 175.7 95.24 173.82 97.08C172.4 98.47 172.58 102.03 172.22 103.9C171.81 105.99 171.3 107.74 172.18 109.75C178.64 111.36 186.61 109.85 193.25 109.78C195.52 109.75 199.1 110.73 201.1 109.34C203.13 107.94 203.18 98.9 202.29 96.75ZM172.02 175.74C173.35 179.81 173.31 188.68 169.75 191.73C161.67 192.03 163.46 180.45 166.25 175.74C168.17 175.74 170.1 175.74 172.02 175.74Z" fill="#6ba524" fill-rule="evenodd" stroke="#6ba524" stroke-width="0.25" stroke-linejoin="round"/>
</svg>