<?xml version="1.0" encoding="UTF-8"?>
<svg xmlns="http://www.w3.org/2000/svg" viewBox="0 0 190 185" width="190" height="185">
<path d="M130.75 155.89C130.16 151.64 136.29 150.02 139.38 148.64C149.39 144.19 157.83 136.9 164.98 128.72C185.55 105.22 185.46 68.33 169.61 42.64C147.59 6.91 96.5 0.2 64.04 25.29C55.47 31.91 48.33 40.51 43.37 50.12C41.57 53.62 40.91 57.81 38.75 61.07C37.1 61.54 35.67 61.08 34.25 60.12C33.56 56.88 36.49 51.73 38.03 48.78C43.07 39.18 48.86 31.44 56.72 23.98C87.18 -4.89 135.83 -1.48 164.78 27.47C192.03 54.72 195.27 98.69 171.46 129.2C165.59 136.72 151.7 147.96 143.3 152.54C140.43 154.1 133.79 157.27 130.75 155.89ZM120.11 47.68C120.11 54.84 120.11 62 120.11 69.15C127.2 69.15 134.29 69.15 141.38 69.15C142.25 71.07 141.73 73.16 141.79 75.25C141.92 80.2 142.59 89.17 141.25 93.65C134.42 93.65 127.58 93.65 120.75 93.65C117.85 100.44 121.62 111.34 119.75 118.81C116.23 119.96 98.76 119.73 95.86 117.75C95.6 109.92 95.34 102.08 95.07 94.25C89.01 92.29 76.78 95.6 72.26 92.75C71.5 89.36 71.37 72.65 72.6 69.75C77.06 66.78 90.1 70.51 95.51 68.75C95.51 61.83 95.51 54.9 95.51 47.98C98.36 46.7 117 46.6 120.11 47.68ZM116.87 50.62C111.06 50.62 105.25 50.62 99.44 50.62C99.44 58 99.44 65.37 99.44 72.75C93.65 73.88 81.78 70.94 77.25 74.16C76.47 78.42 75.9 86.26 77.62 90.25C84.83 90.74 92.04 91.23 99.25 91.73C99.58 99.46 99.92 107.2 100.25 114.94C105.77 114.94 111.28 114.94 116.8 114.94C118.12 108.31 114.94 97.47 118.25 91.77C124.32 89.13 132.72 91.57 139.21 90.75C139.21 84.7 139.21 78.64 139.21 72.59C132.22 72.59 125.24 72.59 118.25 72.59C115.37 66.05 119.5 56.71 116.87 50.62ZM29.38 64.16C32.43 62.98 35.89 65.83 38.12 67.63C44.02 72.4 49.01 78.51 54.55 83.7C56.68 85.69 59.73 88.57 59.54 91.75C59.2 97.54 48.8 102.53 46.93 108.24C45.43 112.83 48.54 117.02 51.57 120.19C56.86 125.73 62.83 130.58 68.13 136.12C70.77 138.88 74.22 143.44 77.91 144.79C85.68 147.64 92.9 131.83 99.26 131.63C102.36 131.53 105.16 134.6 107.21 136.54C112.41 141.47 117.54 146.58 122.56 151.69C124.46 153.63 127.81 156.27 127.6 159.25C127.21 164.92 115.5 174.59 111.01 177.76C104.82 182.13 98.31 184.03 90.75 184.06C72.48 184.14 62.63 173.06 50.79 160.96C44.86 154.89 38.69 149.05 32.7 143.04C23.07 133.41 12.37 124.59 7.93 111.26C2.9 96.15 10.19 82.41 20.6 71.85C23.1 69.31 25.95 65.49 29.38 64.16ZM30.25 69.65C28.29 70.71 26.6 72.52 26.25 74.75C28.99 80.64 38.92 88.95 44.01 93.25C46.1 95.02 49.34 97.92 52.03 95.28C54.88 92.49 52.4 89.72 50.37 87.38C46.25 82.63 41.27 77.86 36.53 73.73C34.54 71.99 33.01 69.87 30.25 69.65ZM21.75 79.26C18.91 80.41 17.06 84.37 15.79 87.06C11.97 95.1 10.53 104.59 14.28 112.99C17.48 120.13 23.35 125.54 28.79 130.96C37.47 139.61 46.34 148.07 54.98 156.77C62.08 163.92 68.61 172.57 78.11 176.66C87.87 180.86 105.89 179.86 112.09 169.75C111.55 167.09 108.88 165.59 107.02 163.72C103.31 159.99 93.44 148.94 89.31 147.25C85.94 148.19 82.95 150.79 79.29 150.34C75.3 149.86 71.43 146.79 68.5 144.25C61.98 138.59 55.62 132.33 49.81 125.93C47.27 123.15 43.46 120.29 42.09 116.67C40.85 113.4 40.99 109.66 42.18 106.39C42.76 104.82 44.48 103.13 44.29 101.35C44.05 99.17 40.57 97.06 39.1 95.64C35.92 92.55 24.69 80.44 21.75 79.26ZM99.25 137.68C96.96 138.77 94.82 140.67 94.59 143.25C97.81 148.44 107.11 156.66 111.94 160.8C114.2 162.74 116.78 166.41 119.78 163.53C121.55 161.83 122.29 160.06 120.78 157.96C117.08 152.82 111.51 149.14 107.3 144.44C105.23 142.13 102.34 138.36 99.25 137.68Z" fill="#556e22" fill-rule="evenodd" stroke="#556e22" stroke-width="0.25" stroke-linejoin="round"/>
</svg>