<?xml version="1.0" encoding="UTF-8"?>
<svg xmlns="http://www.w3.org/2000/svg" viewBox="0 0 247 173" width="247" height="173">
<path d="M160.77 8.75C161.51 19.13 148.94 11.75 144.53 10.25C142.17 9.44 139.1 9.07 139.59 5.77C139.96 3.24 142.76 3.26 144.75 3.54C146.13 3.73 159.9 8.24 160.77 8.75ZM133.3 4.25C133.62 5.47 133.93 6.69 134.25 7.92C132.01 10.5 118.69 14.59 115.18 13.75C114.38 11.97 113.96 10.53 114.92 8.75C117.44 7.2 121.31 7.73 124.2 6.88C127.6 5.87 129.2 2.91 133.3 4.25ZM232.65 5.25C234.4 11.49 224.99 16.68 219.75 14.36C219.42 12.86 219.08 11.37 218.75 9.88C220.16 8.06 230.57 4.66 232.65 5.25ZM165.11 16.25C164.92 14.72 165.03 12.34 166.54 11.3C169.81 9.04 185.75 10.06 185.9 15.75C185.93 16.89 185.65 18.18 184.52 18.74C181.89 20.04 167.6 17.96 165.11 16.25ZM212.21 11.75C212.21 13.49 212.21 15.24 212.21 16.98C209.56 18.69 195.5 18.53 192.25 17.6C191.9 16.19 191.87 13.54 193.16 12.41C195.84 10.05 208.97 10.6 212.21 11.75ZM29.29 12.75C29.29 15.08 29.29 17.42 29.29 19.75C23.76 20.65 16.25 19.62 10.86 18.07C10.86 15.98 10.86 13.88 10.86 11.78C17 12.11 23.15 12.43 29.29 12.75ZM109 14.25C112.38 21.64 98.7 20.58 94.8 21.14C92.9 21.41 89.29 21.87 88.49 20.25C88.49 18.58 88.49 16.92 88.49 15.25C91.67 13.54 105.62 12.72 109 14.25ZM36.25 14.06C41.85 13.19 51.72 12.76 56.75 15.75C56.75 17.38 56.75 19 56.75 20.63C52.83 21.43 38.39 21.86 35.25 19.81C34.83 17.74 34.99 15.78 36.25 14.06ZM82.36 15.25C83.32 16.98 83.33 18.79 82.75 20.66C79.71 22.08 65.06 22.09 62.13 20.75C62.46 18.92 62.8 17.08 63.13 15.25C68.56 13.85 76.96 13.72 82.36 15.25ZM226.56 94.75C228.61 95.42 230.67 96.08 232.73 96.75C233.81 99.91 234.11 111.89 232.79 114.75C231.28 114.47 229.76 114.18 228.25 113.9C227.34 110.18 229.36 104.81 226.75 101.61C223.51 101.72 223.84 104.63 222.82 107.1C221.31 110.75 217.6 113.8 213.49 113.25C205.06 112.11 207.12 106.19 204.64 101.61C203.32 99.18 195.82 98.66 193.77 99.75C192.31 103.89 194.22 108.6 191.91 112.66C189.93 116.13 180.12 116.48 177.43 113.81C175.21 111.6 174.04 106.93 172.68 104.08C170.17 98.81 166.43 94.31 163.36 89.38C161.93 87.09 161.07 83.89 158.75 82.4C155.89 83.3 155.12 86.41 153.33 88.59C148.76 94.13 144.02 99.87 140.28 106.02C138.53 108.89 136.84 114.3 133.66 115.91C132.19 116.65 130.33 116.57 128.75 116.44C117.61 115.47 120.59 104.96 120.6 96.75C120.61 94.24 120.84 90.29 117.87 89.34C113.34 87.89 111.75 92.98 110.87 96.19C109.05 102.92 107.95 111.92 99.25 111.46C97.37 111.36 94.77 111.35 93.32 109.94C91.19 107.86 90.99 103.51 90.6 100.75C89.95 96.21 88.07 85.93 85.25 82.49C82.62 83.14 81.36 86.98 79.94 89.18C75.88 95.49 73.42 108.19 68.69 112.95C65.38 116.3 56.85 115.18 55.09 110.67C53.43 106.43 55.19 101.14 53.25 97.11C50.95 96.13 48.63 97.63 46.71 98.99C45.24 100.03 43.45 100.67 42.63 102.38C40.3 107.22 42.05 113.76 35.02 114.75C32.46 115.12 27.89 114.98 26.24 112.52C23.31 108.12 24.84 98.66 15.75 102.3C13.96 105.8 15.08 111.83 15.08 115.75C15.09 125.42 15.12 135.08 15.19 144.75C15.22 148.45 14.12 153.74 15.75 157.1C20.1 158.94 27.03 157.57 31.75 157.59C44.08 157.63 56.42 157.71 68.75 157.69C106.25 157.65 143.75 157.82 181.25 157.81C191.92 157.8 202.58 157.8 213.25 157.8C217.36 157.8 223.49 159.14 227.25 157.6C227.51 145.96 227.76 134.32 228.02 122.68C229.71 122.68 231.4 122.68 233.09 122.68C234.43 126.19 233.88 131.01 233.92 134.75C234 142.92 235.73 156.48 232.75 163.94C228.25 166.3 220.72 164.96 215.75 164.95C202.92 164.95 190.08 164.94 177.25 164.98C138.58 165.09 99.92 165.11 61.25 165.05C49.92 165.03 38.58 165.04 27.25 164.98C21.59 164.96 15.13 165.67 9.75 163.61C6.6 159.5 7.99 151.66 7.97 146.75C7.93 135.58 7.96 124.42 7.92 113.25C7.9 108.37 6.83 101.85 8.52 97.25C11.95 96.58 15.38 95.92 18.8 95.25C18.06 90.68 14.04 85.93 12.02 81.73C8.06 73.5 5.68 58.62 9.59 50.13C12.05 50.13 14.51 50.13 16.97 50.13C17.17 55.43 14.6 60.49 15.22 66.13C16.44 77.15 23.48 85.26 27.69 95.07C29.26 98.71 29.92 107.8 34.25 108.65C37.03 106.62 35.67 100.84 35.58 97.75C35.37 90.74 39.61 83.42 47.25 82.8C56.7 82.02 60.09 90.28 60.29 98.25C60.37 101.52 59.49 105.83 61.75 108.47C65.32 107.76 67.73 97.58 69.36 94.12C75.2 81.73 83.18 70.52 80.21 56.1C79.43 52.32 77.71 48.14 74.76 45.48C67.41 38.83 56.95 45.43 48.75 45.43C42.78 45.43 37.23 43.02 31.25 42.96C27.5 42.92 20.25 44.49 17.4 41.75C18.86 36.31 23.77 35.82 28.75 35.5C32.88 35.24 36.97 35.73 40.96 36.77C43.39 37.41 45.68 38.59 48.25 38.49C50.56 38.4 52.09 37.48 54.24 36.93C59.99 35.44 67.39 34.34 73.15 36.14C78.19 37.73 80.1 42.75 84.25 45.3C92.02 38.63 95.65 29.62 108.99 32.26C114.87 33.42 119.87 38.04 125.75 38.97C132.82 40.1 139.97 37.37 146.98 39.26C150.73 40.28 155.4 45.73 157.26 45.95C159.63 46.22 161.23 43.44 162.8 42.04C165.44 39.7 169.29 37.7 172.75 36.91C179.8 35.3 184.82 39.61 191.12 38.77C198.82 37.75 205.81 32.58 213.75 32.77C228.45 33.13 236.95 52.66 235.77 65.13C235.1 72.23 232.75 78.75 230.07 85.28C228.81 88.35 226.78 91.42 226.56 94.75ZM128.16 109.75C131.91 109.84 135.35 100.25 137.42 97.16C146.33 83.88 159.9 71.72 152.79 53.92C147.6 40.94 133.89 48.51 123.58 45.7C117.55 44.05 111.14 39.22 104.76 39.25C99.74 39.26 95.37 43.66 92.77 47.53C84.05 60.49 91.56 76.59 95.36 89.84C96.43 93.54 96.29 103.84 99.25 105.55C102.39 104.88 102.57 99.87 103.32 97.13C105.17 90.42 108.22 82.14 116.75 82.57C118.41 82.66 120.07 82.95 121.56 83.7C133.4 89.62 124.45 102.61 128.16 109.75ZM215.25 107.37C216.65 104.66 216.32 101.19 216.91 98.25C217.39 95.84 218.42 93.27 219.22 90.94C220.97 85.82 224.18 81.24 225.77 76.07C229.65 63.42 228.87 45.4 214.16 40.13C208.51 38.11 198.08 45.79 191.25 45.93C185.98 46.03 179.1 42.23 174.6 43.31C166.51 45.23 162.13 53.46 162.03 61.25C161.87 74.45 168.86 83.03 175.74 93.5C177.8 96.62 182.19 108.69 185.25 108.72C187.84 106.31 186.12 101 186 97.75C185.69 89.75 189.94 82.5 198.75 82.69C206.58 82.86 210.21 91.59 210.92 98.25C211.25 101.42 210.98 107.39 215.25 107.37ZM202.25 92.61C201.96 88.49 197.92 89.62 195.91 91.75C197.44 93.35 200.4 94.04 202.25 92.61Z" fill="#557d1a" fill-rule="evenodd" stroke="#557d1a" stroke-width="0.25" stroke-linejoin="round"/>
</svg>