<?xml version="1.0" encoding="UTF-8"?>
<svg xmlns="http://www.w3.org/2000/svg" viewBox="0 0 197 239" width="197" height="239">
<path d="M6.28 98.25C8.65 97.22 11.41 96.96 13.71 98.25C14.11 100.52 13.71 102.93 13.81 105.25C14.14 113.2 14.33 121.36 15.37 129.25C18.03 149.39 24.7 170.52 36.31 187.44C47.01 203.02 60.91 213.61 78.11 221.17C84.6 224.02 91.58 227.2 98.75 227.69C105.44 228.14 112.2 225.33 118.38 223.18C137.02 216.71 153.77 203.99 164.66 187.4C184.62 156.99 186.63 120.6 186.87 85.25C186.95 73.58 186.98 61.92 187.02 50.25C187.03 46.1 188.27 39.49 186.25 35.81C183.18 33.99 177.82 33.6 174.27 32.92C167.08 31.55 159.88 29.66 152.81 27.85C142.11 25.12 131.13 22.8 120.48 19.75C113.71 17.81 105.86 15.05 98.75 15.3C93.8 15.47 88.87 17.62 84.1 18.79C74.53 21.13 64.87 23.82 55.23 25.93C45.36 28.08 35.64 30.97 25.75 33.09C22.81 33.73 16.24 34.48 14.46 37.2C12.35 40.42 13.7 47.54 13.71 51.25C13.73 59.42 13.79 67.58 13.85 75.75C13.88 79.49 14.42 83.65 13.75 87.31C11.75 88.49 8.41 88.25 6.25 87.43C5.08 83.6 5.93 78.3 5.92 74.25C5.9 64.92 6.01 55.58 5.84 46.25C5.77 42.39 4.73 35.23 7.25 32C9.03 29.72 13.73 29.48 16.31 28.62C24.81 25.75 33.43 23.35 42.22 21.39C54.85 18.56 67.21 15.13 79.77 12.08C86.2 10.52 93.1 8.04 99.75 8.04C111.24 8.03 126.66 13.77 137.95 16.76C151.64 20.39 165.55 23.83 179.39 26.78C183.48 27.65 192.38 28.79 193.75 33.49C195.19 38.46 194.5 44.62 194.54 49.75C194.64 60.42 194.53 71.08 194.56 81.75C194.61 102.03 194.88 122.23 190.84 142.19C183.92 176.34 163.54 209.71 131.43 225.23C122.41 229.59 111.87 234.21 101.75 234.94C96.04 235.35 89.89 233.58 84.87 230.88C83.25 230.01 81.95 228.69 80.12 228.19C76.71 227.26 73.26 227.12 69.92 225.79C36.93 212.69 14.89 170.89 8.91 137.77C7.22 128.42 6.3 118.78 6.12 109.25C6.06 105.87 5.19 101.45 6.28 98.25ZM163.75 157.24C161.78 157.28 159.75 157.1 158.25 155.75C158.4 152.58 160.08 148.85 160.88 145.7C162.09 140.94 163.05 136 163.79 131.14C166.33 114.37 165.82 97.16 165.85 80.25C165.86 74.45 167.29 59.41 165.31 54.75C163.48 53.44 160.66 53.39 158.52 52.73C151.83 50.66 144.84 49.37 138.05 47.72C134.94 46.97 132.46 45.05 129.37 44.32C126.13 43.56 122.58 43.48 119.28 42.88C112.76 41.69 106.45 39.82 99.75 39.8C91.84 39.77 84.22 42.23 76.54 43.76C73.15 44.43 69.68 44 66.36 45.16C64.64 45.76 63.25 47.16 61.47 47.72C55.05 49.74 48.29 51.39 41.73 52.91C39.59 53.41 35.35 53.87 34.73 56.42C33.96 59.59 34.55 63.5 34.55 66.75C34.55 74.25 34.49 81.75 34.47 89.25C34.4 127.5 37.19 165.89 69.32 191.44C71.83 193.44 73.58 196.17 76.41 197.81C80.64 200.27 95.85 203.82 100.75 203.61C118.04 202.84 134.76 191.08 145.18 177.91C147.03 175.57 152.28 166 154.39 165.19C156.09 164.53 157.86 165.32 159.27 166.25C160.08 171.27 152.36 180.01 149.16 183.9C136.15 199.75 113.54 214.56 92.28 209.87C71.25 205.23 52.38 189.94 42.19 171.09C39.08 165.33 37.08 159.39 34.81 153.38C33 148.57 31.19 143.85 30.15 138.7C27.12 123.76 27.1 108.43 27.01 93.25C26.96 82.92 26.99 72.58 27.05 62.25C27.07 58.86 26.13 52.89 28.24 49.98C29.89 47.68 34.76 47.31 37.3 46.65C44.79 44.71 52.21 42.74 59.72 40.9C67.97 38.88 76.26 36.98 84.43 34.7C89.54 33.28 95.38 30.9 100.75 31.01C105.85 31.12 111.18 33.28 116 34.73C125.02 37.45 134.33 39.43 143.46 41.76C150.24 43.49 157.03 45.09 163.81 46.85C166.2 47.48 170.38 47.71 172.06 49.68C173.89 51.84 173.02 60.72 173.02 63.75C173.03 76.75 173.09 89.75 173.09 102.75C173.1 116.72 172.52 130.29 169.2 143.88C168.25 147.76 167.22 154.87 163.75 157.24ZM118.3 76.71C136.12 75.39 145.73 94.31 144.84 109.75C144.05 123.58 136.26 135 130.28 147.01C127.59 152.41 126.79 160.7 121.78 164.53C117.78 167.57 111.79 165.7 109.27 161.49C106.02 156.03 106.78 148.76 105.5 142.75C104.76 139.31 102.36 135.88 98.24 137.97C95.34 139.43 95.13 144.87 94.89 147.75C94.21 156.12 93.6 165.58 83.25 165.72C81.29 165.74 79.24 165.69 77.44 164.77C75.47 163.76 75.42 160.8 74.75 158.96C72.98 154.07 70.97 149.16 68.78 144.43C65.52 137.36 60.88 130.75 58.36 123.35C53.71 109.75 54.88 92.08 66.36 82.12C76.88 73 89.15 79.5 101.27 79.79C107.32 79.93 112.45 77.14 118.3 76.71ZM116.75 159.81C119.72 159.01 123.22 145.36 125.05 141.79C131.63 128.96 138.58 117.25 137.08 102.25C136.26 94.11 130.22 84.8 121.42 83.77C116.38 83.19 109.32 86.89 103.76 87.21C99.68 87.44 95.25 87.43 91.25 86.54C81.25 84.31 76.32 81.47 68.61 90.37C55.02 106.06 68.98 128.92 77.11 143.65C78.78 146.68 81.48 157.98 83.75 158.81C86.87 156.68 85.89 150.57 86.15 147.25C86.86 137.97 91.38 129.29 101.75 129.99C111.65 130.66 113.37 141.74 113.92 149.75C114.13 152.75 113.69 158.27 116.75 159.81Z" fill="#184f80" fill-rule="evenodd" stroke="#184f80" stroke-width="0.25" stroke-linejoin="round"/>
</svg>