<?xml version="1.0" encoding="UTF-8"?>
<svg xmlns="http://www.w3.org/2000/svg" viewBox="0 0 225 244" width="225" height="244">
<path d="M187.18 30.75C186.36 32.26 184.87 33.37 183.03 32.71C181.35 32.11 179.92 30.29 178.43 29.32C174.41 26.7 170.22 24.64 165.66 23.15C158.95 20.94 152.25 17.02 145.98 15.27C137.72 12.96 122.71 14.01 114.36 16.19C93.84 21.52 86.63 43.77 85.39 62.75C85.07 67.61 84.16 80.06 88.75 83.07C92.17 83.04 93.62 80.11 95.15 77.39C98.25 71.87 99.57 59.7 102.48 56.23C105.46 52.66 109.75 52.46 114.02 51.75C120.6 50.65 127.98 49.47 134.15 46.88C139.29 44.73 143.89 40.43 149.72 40.24C152.35 40.15 154.84 40.84 157.11 42.15C160.44 44.07 171.06 53.27 172.72 56.52C174.21 59.42 174.38 63.08 175.11 66.23C176.3 71.42 179.19 83.34 185.75 83.57C189.14 80.55 189.08 75.98 188.98 71.75C188.81 64.39 188.42 57.09 187.89 49.75C187.57 45.37 183.06 37.01 191.61 38.25C193.04 41.17 194.51 45 194.91 48.25C195.42 52.37 194.85 57.16 196.16 61.13C196.77 62.97 198.61 64.02 199.78 65.46C201.82 67.97 203.63 71.02 204.7 74.08C208.07 83.76 204.85 97.47 195.7 102.97C193.65 104.21 191.46 103.91 189.25 104.46C187.71 106.89 188.31 110.2 187.73 112.98C186.59 118.51 184.52 124.03 181.65 128.89C177.28 136.29 171.08 142.02 163.91 146.66C161.13 148.46 156.35 149.9 154.49 152.76C152.87 155.23 152.94 166.9 153.75 169.81C156.46 171.55 160.6 170.76 163.74 171.14C167.81 171.62 172.43 173.39 176.1 175.18C192.68 183.26 202.39 201.98 203.14 219.75C203.32 224.02 204.11 229.77 202.42 233.75C198.95 234.95 194.42 234.15 190.75 234.13C181.92 234.07 173.08 234.03 164.25 234.04C142.75 234.07 121.25 234.35 99.75 234.18C91.06 234.12 79.01 235.85 70.77 233.64C70.77 223.34 70.77 213.05 70.77 202.75C72.81 202.04 75.28 201.71 77.25 202.62C79.53 208.75 75.19 222.7 78.25 228.13C82.02 229.5 101.41 229.41 105.82 228.75C107.68 223.95 106.03 216.42 106.02 211.25C106 200.25 105.97 189.25 105.88 178.25C105.85 173.49 106.85 167.69 105.25 163.16C96.25 163.16 87.25 163.16 78.25 163.16C77.62 165.36 76.99 167.55 76.36 169.75C74.53 170.29 72.94 170.29 71.25 169.39C69.87 167.25 69.51 160.63 71.44 158.7C73.29 156.84 76.49 157.32 77.23 154.46C79.45 145.98 77.85 135.93 77.94 127.25C78 121.36 79.38 108.71 77.69 103.56C77.02 101.5 74.46 100.71 73.22 99.04C69.9 94.57 68.4 88.75 68.08 83.25C67.77 77.72 69.45 72.01 72.9 67.64C74.48 65.64 77.14 64.26 78.12 61.84C80.47 56.1 79.64 48.87 81.16 42.83C83.62 33.08 90.07 23.37 98.14 17.4C108.92 9.42 121.25 8.31 134.25 8.08C139.62 7.99 144.87 7.84 150.1 9.22C154.42 10.36 158.11 13.59 162.35 14.83C169.13 16.82 185.48 22.87 187.18 30.75ZM95.06 89.25C96.29 91.35 98.57 92.16 99.12 94.75C100.7 102.1 97.18 118.21 100.58 123.66C102.77 127.18 107.38 128.92 109.93 132.33C111.9 134.96 111.3 139.43 114.02 141.23C118.01 143.86 122.1 144.99 126.66 146.15C129.87 146.97 132.89 148.06 136.25 148.21C140.44 148.4 143.92 147.31 147.84 146.14C163.64 141.44 174.54 132.06 179.7 115.92C181.6 109.98 181.54 103.91 181.97 97.75C182.13 95.48 182.99 92.44 181.97 90.29C181.24 88.73 179.27 87.86 178.03 86.72C175.34 84.21 172.6 80.4 171.27 76.97C169.26 71.73 169.19 65.46 166.75 60.47C165.42 57.73 154.98 48.37 152.14 47.17C147.58 45.25 138.16 52.02 133.38 53.67C128.59 55.32 123.37 56.87 118.37 57.71C115.5 58.2 111.44 57.55 108.9 59.17C106.71 60.56 106.61 64.96 106.07 67.26C104.94 72.09 103.06 76.94 100.33 81.1C98.71 83.57 95.5 86.38 95.06 89.25ZM79.25 72.33C76.58 72.67 76.24 75.5 75.71 77.88C74.68 82.5 73.89 90.14 77.67 93.75C79.88 93.67 82.41 90.28 82.89 88.19C83.01 87.68 79.64 73.05 79.25 72.33ZM196.92 72.75C194.88 74.45 194.89 77.82 194 80.23C192.62 83.93 182.08 96.82 191.43 98.26C197.91 99.25 200.09 83.52 199.96 79.25C199.88 76.76 200.01 73.2 196.92 72.75ZM57.39 81.25C60.71 87.11 61.77 93.69 63.71 100.06C64.89 103.91 66.41 108.99 64.3 112.75C60.44 113.8 52.81 106.51 49.36 104.39C44.88 101.64 38.37 102.89 34.83 100.44C32.95 99.14 32.43 94.88 31.88 92.78C30.34 86.85 25.68 79.41 26.98 73.25C33.75 70.91 41.4 77.55 47.48 79.75C50.67 80.9 54.12 80.36 57.39 81.25ZM55.36 96.75C56.08 94.37 55.38 90.57 53.52 88.73C51.83 87.05 38.98 83.7 36.62 84.25C36.54 94.27 40.39 93.59 48.27 95.42C50.64 95.96 52.96 97.41 55.36 96.75ZM103.75 156.36C105.29 153.42 106.14 137.57 104.2 135.06C100.96 130.85 94.18 128.85 93.25 123.03C92.22 116.58 93.04 109.29 93.01 102.75C93 100.65 93.66 97.37 92.76 95.43C91.52 92.74 87.07 94.18 85.26 95.25C83.64 100.22 84.36 106.08 84.29 111.25C84.16 121.45 83.4 132.17 84.48 142.25C84.97 146.73 83.56 151.95 84.83 156.25C87.43 157.76 100.92 157.61 103.75 156.36ZM61.53 126.75C57.63 131.24 48.14 129.95 42.8 130.69C38.69 131.25 37.63 135.46 34.11 136.83C29.46 138.63 23.37 134.47 19.37 132.38C16.4 130.82 8.46 127.86 8.42 123.75C8.37 119.82 20.15 117.11 23.24 115.99C27.17 114.57 30.54 109.93 34.53 109.26C37.04 108.85 39.87 110.62 42 111.73C47.02 114.35 61.56 120.54 61.53 126.75ZM44.65 121.25C43.2 119.04 37.1 115.65 34.4 116.69C32 117.63 30.32 120.53 27.87 121.64C25.44 122.74 21.87 122.47 20.39 124.75C21.61 126.7 29.43 130.89 31.7 130.43C34.36 129.9 36.21 126.51 38.4 125.18C40.68 123.79 44.06 124.09 44.65 121.25ZM67.56 138.25C67.53 143.82 62.2 147.34 59.39 151.64C56.55 155.99 57.72 161.44 55 165.73C51.89 170.65 39.74 172.92 34.25 173.1C31.95 173.18 28.88 173.84 27.06 172.25C27.99 165.79 33.32 160.1 34.76 153.55C35.38 150.71 35.09 145.63 37.36 143.61C39.82 141.43 47.47 140.68 50.85 139.64C55.14 138.32 64.16 134.21 67.56 138.25ZM53.25 146.07C49.52 145.79 43.47 147.29 42.01 151.28C41.25 153.39 41.41 155.77 40.65 157.88C39.73 160.39 36.93 163.67 38.1 166.25C39.76 166.29 41.27 165.63 42.87 165.18C50.04 163.15 49.62 157.61 51.1 151.28C51.54 149.4 53.13 147.96 53.25 146.07ZM112.25 149.22C111.14 152.56 111.45 168.61 112.48 171.85C115.24 171.85 117.99 171.85 120.75 171.85C121.25 167.31 122.09 157.18 120.72 152.99C119.75 150.03 114.87 148.6 112.25 149.22ZM146.69 154.7C140.05 154.7 133.4 154.7 126.75 154.7C126.75 160.1 126.75 165.5 126.75 170.9C133.08 170.9 139.42 170.9 145.75 170.9C147.14 168.06 147.62 157.75 146.69 154.7ZM196.74 228.25C196.62 208.1 189.19 185.37 167.68 179.13C158.62 176.5 148.61 177.5 139.25 177.31C133.58 177.2 127.92 177.28 122.25 177.17C119.62 177.12 116.09 176.52 113.71 177.75C111.91 181.34 113.07 187.27 113.06 191.25C113.04 199.58 113.04 207.92 112.84 216.25C112.76 219.75 111.82 224.98 112.9 228.25C116.69 230.2 126.69 228.99 131.25 228.99C146.41 228.98 161.59 228.89 176.75 228.77C181.42 228.73 193.15 230.13 196.74 228.25ZM77.05 177.77C77.05 182.63 77.05 187.5 77.05 192.37C74.98 192.98 73.11 192.48 71.1 191.75C71.1 187.09 71.1 182.43 71.1 177.77C73.08 177.77 75.07 177.77 77.05 177.77ZM134.3 194.65C150.19 192.55 152.59 213.49 138.38 216.21C125.58 218.67 120.42 196.47 134.3 194.65ZM134.87 199.75C127.92 200.69 130.19 212.03 136.67 211.35C145.33 210.44 143.4 198.6 134.87 199.75Z" fill="#7f9938" fill-rule="evenodd" stroke="#7f9938" stroke-width="0.25" stroke-linejoin="round"/>
</svg>