<?xml version="1.0" encoding="UTF-8"?>
<svg xmlns="http://www.w3.org/2000/svg" viewBox="0 0 240 193" width="240" height="193">
<path d="M121.25 34.04C123.17 32.38 123.72 29.51 125.13 27.37C127.85 23.23 131.52 19.54 135.95 17.22C150.31 9.7 165.04 20 179.75 18.57C192.31 17.35 204.2 10.6 216.58 17.2C235.85 27.47 238.31 55.8 231.23 73.95C229.72 77.82 226.25 87.19 222.75 89.33C221.47 88.8 220.18 88.28 218.9 87.75C218.89 81.64 226.81 71.41 225.61 66.25C223.67 65.18 220.95 65.87 218.75 65.86C214.41 65.83 201.89 65.12 198.44 66.72C196.06 67.82 197.2 71.42 194.51 72.25C191.44 73.2 187.44 72.64 184.25 72.7C177.5 72.84 162.03 74.02 156.25 71.7C155.74 69.89 155.23 68.07 154.72 66.25C152.47 65 149.3 65.83 146.75 65.8C140.24 65.74 132.59 64.92 126.25 66.22C125.74 69.69 130.02 77.26 131.7 80.55C137.05 91.08 143.58 101.36 147.18 112.63C148.36 116.32 149.9 125.64 155.64 122.87C159.56 120.97 159.27 113.83 159.57 110.25C160.56 98.59 162.96 83.4 178.75 85.41C190.62 86.92 192.72 101.24 192.97 110.75C193.07 114.19 192.64 123.33 197.75 123.58C201.36 123.76 202.47 121.07 203.49 118.25C205.54 112.62 206.83 106.87 209.86 101.63C211.79 98.32 213.33 93.46 218.11 96.75C219.4 101.46 211.66 110.1 211.25 115.44C216.14 118.14 229.06 113.5 233.34 117.92C235.79 120.45 234.9 130.26 234.9 133.75C234.89 145.25 235.07 156.75 234.95 168.25C234.91 173.02 235.92 179.36 233.8 183.75C228.73 185.51 222.07 184.44 216.75 184.51C205.42 184.65 194.08 184.73 182.75 184.76C143.92 184.86 105.08 184.88 66.25 184.77C53.08 184.74 39.92 184.75 26.75 184.73C21.02 184.72 13.09 185.91 7.75 183.61C5.58 179.15 6.9 171.66 6.88 166.75C6.84 155.92 6.98 145.08 7.01 134.25C7.02 128.9 6.14 122.22 8.45 117.25C14.76 113.54 23.41 118.14 29.75 115.41C30.98 111.87 28.25 108.5 30.25 105.07C31.41 105.07 32.58 105.07 33.75 105.07C36.48 109.49 37.22 117.98 39.61 121.63C41.36 124.31 46.99 123.16 47.97 120.22C51.47 109.75 46.04 83.4 66.75 85.45C81.18 86.88 81.32 99.93 82.54 111.25C82.95 115.01 83.17 124.56 89.24 123.57C92.63 123.01 94.9 112.73 95.98 109.74C99.84 99.05 106.59 89.78 111.25 79.49C112.83 76 116.23 70.26 115.75 66.47C113.52 65.46 110.69 65.85 108.25 65.85C102.98 65.85 92.32 64.67 87.75 66.58C86.64 68.03 86.73 70.74 84.96 71.7C82.37 73.09 77.61 72.43 74.75 72.5C67.49 72.67 52.68 74.13 46.25 71.96C45.68 70.06 45.12 68.15 44.55 66.25C42.29 65.16 39.24 65.69 36.75 65.69C31.7 65.68 20.49 64.71 16.22 66.25C15.69 70.08 23.11 84.34 25.27 88.5C26.55 90.94 29.46 94.46 28.74 97.25C22.55 101.05 19.13 91.12 16.85 86.88C9.79 73.77 4.83 58.62 8.29 43.58C11.76 28.43 21.47 13.84 38.73 14.22C48.17 14.43 56.88 19.19 66.36 18.73C79.29 18.11 91.59 10.78 104.48 16.28C113.67 20.2 114.99 27.81 121.25 34.04ZM116.71 45.25C117.05 43.04 116.01 41.49 115.28 39.48C112.3 31.36 107.28 23.7 98.39 21.33C88.27 18.63 78.18 24.94 68.25 25.62C51.49 26.76 35.5 12.27 21.96 29.2C20.28 31.29 18.81 33.65 17.82 36.12C16.64 39.1 14.68 42.15 14.75 45.45C17.06 46.62 20.64 45.95 23.25 45.94C29.7 45.92 38.07 47.32 44.25 45.48C45.02 43.9 45.8 42.33 46.57 40.75C49.26 39.33 53.26 40.02 56.25 39.98C62.26 39.9 80.03 38.33 84.71 40.53C86.78 41.5 86.51 43.91 87.75 45.55C93.9 47.35 102.32 45.91 108.75 45.9C111.23 45.9 114.52 46.38 116.71 45.25ZM226.7 45.25C227.05 41.93 225 37.63 223.56 34.68C222.38 32.26 220.95 30.11 219.13 28.13C206 13.87 192.19 25.26 176.75 25.7C161.94 26.11 143.86 12.78 132.14 28.87C130.35 31.33 129 33.85 127.9 36.68C126.88 39.29 125.28 42.64 125.25 45.45C128.4 47.09 143.32 46.02 147.75 45.93C149.66 45.88 152.92 46.43 154.59 45.32C156.12 44.31 155.85 42.09 156.75 40.67C159.41 39.33 163.28 39.94 166.25 39.87C172.61 39.73 189.17 38.23 194.48 40.29C196.82 41.19 196.15 44.34 198.47 45.27C203.13 47.15 213.99 45.96 219.25 45.91C221.64 45.89 224.61 46.39 226.7 45.25ZM81.11 47.03C76.37 44.95 64.83 46.36 59.25 46.34C56.89 46.33 53.55 45.56 51.48 46.75C50.23 49.23 50.13 62.56 51.17 65.25C54.37 66.38 58.37 65.75 61.75 65.73C67.9 65.68 75.15 66.7 81.11 65.08C81.11 59.07 81.11 53.05 81.11 47.03ZM191.17 46.75C185.5 45.03 175.92 46.45 169.75 46.42C167.02 46.4 163.69 45.7 161.25 47.03C160.4 49.83 159.97 62.56 161.25 65.23C164.25 66.19 168.1 65.64 171.25 65.65C177.54 65.65 185.1 66.67 191.17 64.99C191.17 58.91 191.17 52.83 191.17 46.75ZM227.9 53.15C224.06 51.34 211.64 52.67 206.75 52.62C204.12 52.59 201.17 51.66 198.7 52.75C197.82 54.64 197.76 56.85 198.75 58.69C204.29 60.26 213.78 59.07 219.75 59.04C222.5 59.03 225.42 59.57 227.9 58.25C227.9 56.55 227.9 54.85 227.9 53.15ZM44.25 52.99C41.9 52.02 38.8 52.66 36.25 52.63C31.15 52.56 18.37 51.14 14.25 53.09C13.36 55.19 13.63 57.03 14.55 59.07C24.28 59.07 34.02 59.07 43.75 59.07C44.61 56.94 44.87 55.23 44.25 52.99ZM116.75 52.49C107.23 52.49 97.71 52.49 88.18 52.49C87.3 54.67 87.35 56.79 88.02 59.03C97.59 59.03 107.17 59.03 116.75 59.03C117.59 56.69 117.71 54.81 116.75 52.49ZM153.94 52.49C144.09 52.49 134.24 52.49 124.39 52.49C124.39 54.57 124.39 56.65 124.39 58.74C130.86 60.2 138.61 59.23 145.25 59.2C148.1 59.19 151.38 59.59 153.94 58.25C153.94 56.33 153.94 54.41 153.94 52.49ZM121.75 74.17C119.7 74.95 114.24 86.83 114.25 89.25C118.71 89.25 123.18 89.25 127.64 89.25C125.68 84.22 123.71 79.2 121.75 74.17ZM56.47 105.25C59.06 105.57 68.99 100.85 71.46 99.21C72.85 98.29 73.48 96.67 72.62 95.12C67.57 86.03 53.29 96.95 56.47 105.25ZM184.75 105.71C186.1 104.17 185.7 102.96 185.26 100.98C184.64 98.17 183.55 94.93 180.91 93.34C176.9 90.93 169.98 91.52 168.82 96.75C169.78 99.37 181.67 104.93 184.75 105.71ZM167.38 105.25C165.28 109.52 166.84 116.62 164.88 121.66C162.11 128.82 151.46 133.44 145.39 126.86C138.74 119.66 139.94 95.48 126.25 95.36C123.29 95.33 111.59 94.8 109.71 96.46C108.44 97.59 107.63 100.13 106.88 101.64C104.06 107.31 98.97 124.37 95.73 127.48C89.88 133.1 79.53 128.4 77.17 121.62C75.34 116.34 76.82 110.32 75.09 105.25C70.51 104.42 64.91 109.63 60.86 111.61C59.31 112.37 57.19 112.9 56.31 114.55C53.4 120.01 55.12 126.09 47.68 128.92C44.04 130.31 38.76 130.19 35.74 127.51C34.38 126.31 33.95 124.29 32.23 123.51C29.39 122.22 18.47 122.68 15.22 123.25C13.2 126.52 14.25 132.9 14.24 136.75C14.22 146.08 14.33 155.41 14.26 164.74C14.23 168.43 13.14 173.86 14.46 177.25C18.82 179.29 26.44 177.89 31.25 177.89C44.25 177.9 57.25 177.89 70.25 177.9C106.42 177.95 142.58 177.93 178.75 177.93C189.92 177.93 201.08 177.92 212.25 177.9C216.99 177.89 223.25 178.94 227.75 177.59C229.18 173.82 228.36 168.75 228.36 164.75C228.37 155.75 228.44 146.75 228.4 137.75C228.38 133.35 229.35 127.36 227.72 123.25C219.29 121.92 212.13 123.42 204.28 126.06C200.97 127.18 197.4 130.57 193.74 129.07C188.1 126.76 188.48 119.37 185.75 114.98C184.41 112.83 169.87 105.22 167.38 105.25Z" fill="#195280" fill-rule="evenodd" stroke="#195280" stroke-width="0.25" stroke-linejoin="round"/>
</svg>