<?xml version="1.0" encoding="UTF-8"?>
<svg xmlns="http://www.w3.org/2000/svg" viewBox="0 0 222 258" width="222" height="258">
<path d="M187.45 116.75C189.15 115.6 192.32 115.29 194.25 116C195.61 119.89 195.24 137.1 193.29 140.75C190.02 142.08 186.74 143.42 183.47 144.75C181.45 149.79 182.78 163.81 182.81 169.75C182.87 182.75 182.67 195.76 182.92 208.75C183.02 214.34 182.31 220.35 183.29 225.88C184.9 234.99 198.17 240.6 204.69 232.94C208.59 228.35 208.12 221.91 208.13 216.25C208.15 205.25 208.14 194.25 208.15 183.25C208.2 148.59 208.51 113.91 208.26 79.25C208.19 69.75 208.31 60.25 208.42 50.75C208.48 45.49 209.16 39.51 207.83 34.36C203.7 18.4 182.49 22.48 170.25 22.68C165.7 22.75 159.27 21.69 154.97 23.26C152.25 24.25 153.15 27.84 154.25 29.67C158.87 31.51 176.53 30.56 182.75 30.86C185.93 31.01 190.97 30.17 193.26 33C194.67 34.73 194.32 38.13 194.39 40.25C194.61 46.75 194.46 53.25 194.57 59.75C194.62 63.22 195.44 77.43 192.54 79.28C189.95 80.93 185.19 80.17 182.25 80.18C175.87 80.2 159.28 79.06 154.25 81.5C153.48 82.67 153.27 83.83 153.28 85.25C153.29 90.79 162.01 88.92 165.75 88.93C171.95 88.94 188.79 87.03 192.8 92.43C194.43 94.64 194.16 97.64 194.19 100.25C194.21 102.23 194.24 104.16 193.69 106.06C191.7 106.06 189.71 106.06 187.73 106.06C187.73 102.63 187.73 99.19 187.73 95.75C184.95 93.79 180.52 94.47 177.25 94.54C171.03 94.67 155.94 95.92 150.66 93.62C145.55 91.4 146.69 78.4 150.27 75.01C152.68 72.72 156.04 73.63 158.75 72.22C159.98 69.75 159.25 66.47 159.29 63.75C159.38 58.52 160.56 42.42 158.75 38.33C155.91 37.34 152.64 37.76 150.18 35.58C146.74 32.52 146.66 20.02 150.41 17.17C153.8 14.6 161.28 15.92 165.25 15.89C176.36 15.83 199.44 13.17 207.68 21.05C219.58 32.44 215.98 53.99 216 69.25C216.05 110.08 215.64 150.92 215.93 191.75C215.98 200.25 215.98 208.75 215.92 217.25C215.88 222.02 216.2 227.77 213.86 232.11C211.79 235.96 208.32 238.7 204.58 240.81C195 246.21 181.99 241.25 177.06 231.68C174.65 226.99 175.06 220.39 175.01 215.25C174.86 198.92 174.74 182.58 174.79 166.25C174.82 158.52 173.62 149.3 175.58 141.78C176.93 136.6 184.94 140.93 186.99 136.72C189.42 131.75 185.88 122.31 187.45 116.75ZM186.75 37.19C180.55 37.19 174.35 37.19 168.15 37.19C165.37 44.09 167.26 53.88 167.22 61.25C167.21 65.03 166.63 69.6 168.01 73.15C174.26 73.15 180.5 73.15 186.75 73.15C188.44 68.58 187.23 52.52 187.22 46.75C187.22 43.72 188.25 39.87 186.75 37.19ZM41.5 167.25C42.69 165.19 45.72 163.14 47.68 165.57C50.85 169.5 54.82 178.59 55.73 183.55C56.14 185.79 56.23 187.59 57.95 189.25C64.77 190.59 63.79 180.49 63.9 176.25C64.2 164.5 68.11 155.55 81.25 155.97C95.14 156.41 95.36 171.67 95.92 182.25C96.06 184.88 96.96 192.08 101.41 189.66C102.97 188.81 103.33 186.17 103.83 184.63C105.13 180.59 106.47 176.41 108.31 172.57C116.16 156.25 128.11 140.65 125.28 121.39C124.65 117.1 123.95 110.43 120.75 107.17C116.03 107.43 116.96 114.79 110.87 112.83C104.85 110.9 105.23 100.98 99.32 98.89C96.96 98.06 94.56 100.49 92.36 101.17C88.36 102.41 83.89 102.48 79.75 102.42C65.01 102.21 47.15 90.76 38.05 109.26C36.93 111.54 35.76 113.89 35.21 116.38C33.33 124.86 33.98 133.16 36.27 141.48C37.62 146.38 41.24 151.1 40.95 156.25C39.72 156.99 38.48 157.73 37.25 158.48C33.08 156.46 31.29 150.04 29.75 145.98C24.14 131.14 24.8 110 37.07 98.33C52.22 83.92 69.34 97.24 86.73 95.34C90.71 94.9 90.07 91.87 92.34 89.58C95.61 86.28 99.63 83.42 102.42 79.65C104.43 76.92 106.22 72.73 109.39 71.16C111.36 70.18 113.69 69.82 115.55 71.21C118.42 73.35 120.07 78.04 122.47 80.77C125.44 84.15 129.9 86.09 132.73 89.52C137.06 94.8 124.29 96.57 125 101.24C125.34 103.44 127.73 106 128.66 108.1C130.76 112.83 132.53 117.54 133.03 122.75C134.89 142 123.41 158.24 115.46 174.7C112.86 180.07 110.45 193.57 104.41 195.68C102.43 196.38 99.81 196.22 97.77 195.89C87.03 194.12 88.27 179.75 86.91 171.76C86.24 167.86 84.24 161.15 78.9 162.23C75.01 163.02 73.59 167.86 72.78 171.11C70.99 178.27 73.21 192.13 63.99 195.25C50.55 199.79 49.02 188.33 45.64 178.64C44.34 174.89 41.86 171.23 41.5 167.25ZM112.75 81.15C110.39 81.49 102.2 90.17 102.72 92.6C103.01 93.92 110.38 101.33 111.75 102.09C113.03 101.74 121.1 93.77 121.77 92.25C121.36 90.55 114.24 81.87 112.75 81.15ZM42.95 196.75C41.86 198.8 39.64 199.67 38.04 201.3C35.34 204.03 30.59 213.27 25.88 211.83C22.87 210.91 19.17 203.81 16.66 201.58C14.89 199.99 12.15 200.52 11.12 198.25C12.25 197.07 13.36 197.21 14.72 196.5C16.34 195.66 18.1 193.36 19.14 191.88C21.45 188.58 20.97 182.89 25.49 181.27C27.14 180.68 28.76 181.12 30.07 182.19C32.37 184.07 42.76 194.67 42.95 196.75ZM25.8 192.13C21.34 193.29 22.33 201.74 27.49 200.73C33.39 199.57 31.64 190.62 25.8 192.13Z" fill="#5a801c" fill-rule="evenodd" stroke="#5a801c" stroke-width="0.25" stroke-linejoin="round"/>
</svg>