<?xml version="1.0" encoding="UTF-8"?>
<svg xmlns="http://www.w3.org/2000/svg" viewBox="0 0 270 335" width="270" height="335">
<path d="M208.86 53.25C208.43 57.72 204.22 57.57 200.76 56.86C197.91 56.28 195.27 54.91 192.41 54.29C184.53 52.59 174.41 53.42 166.92 56.23C153.32 61.33 142.93 72.1 129.01 76.73C124.56 78.21 114.2 81.33 114.53 73.75C118.77 68.08 131.82 71.39 134.75 66.2C132.16 62.27 118.47 55.7 113.75 55.01C110.39 54.53 106.65 54.79 105.24 58.42C103.27 63.49 106.28 68.3 106.79 73.25C107.15 76.78 105.25 80.06 104.8 83.5C104.37 86.8 104.6 90.41 103.82 93.65C102.45 99.32 97.12 105.73 91.64 107.85C83.74 110.9 68.65 107.85 61.38 103.83C58.27 102.11 55.78 96.65 51.83 97.25C49.95 100.06 50.68 104.01 50.9 107.25C51.45 115.52 52.26 123.62 54.73 131.54C58.02 142.07 61.94 152.36 66.25 162.53C70.7 173.03 75.95 183.18 79.17 194.15C81.66 202.62 84.92 212.83 82.75 221.7C80.27 222.85 78.73 223.19 76.31 221.75C74.99 217.84 75.24 213.97 74.75 209.93C73.98 203.53 72.94 197.04 70.74 190.97C65.84 177.46 58.71 164.81 53.26 151.52C49.8 143.09 47.74 134.31 45.75 125.44C43.3 114.53 40.94 102.15 45.15 91.36C47.68 84.84 55.8 83.32 59.84 78.12C63.23 73.76 61.9 66.96 66.7 63.47C71.54 59.95 80.33 59.25 86.12 56.83C92.72 54.07 98.52 48.2 105.74 47.04C114.41 45.64 123.1 50.22 130.42 54.31C133.88 56.24 137.06 59.72 141.25 59.91C148.46 60.23 155.37 53.36 161.45 50.24C171.72 44.96 184.76 45.76 195.77 47.88C200.18 48.74 205.75 49.71 208.86 53.25ZM226.75 67.64C221.08 71.49 210.29 65.22 214.47 58.25C218.27 57.6 226.66 63.6 226.75 67.64ZM96.48 61.25C90.48 60.73 83.3 66.03 77.66 67.86C75.17 68.66 72.05 68.86 70.21 70.96C67.4 74.18 68.36 79.15 65.82 82.59C63.57 85.64 58.82 86.93 57.86 90.75C61.25 99.24 72.87 100.52 80.75 101.1C84.18 101.35 88.12 101.88 91.06 99.79C97.74 95.03 98.82 77.39 98.01 69.75C97.73 67 97.72 63.72 96.48 61.25ZM233.23 75.25C238.92 81.81 239.8 95.47 240.27 103.78C241.48 124.8 233.4 146.74 224.72 165.49C220.37 174.87 215.38 184.12 212.28 194.02C207.82 208.27 209.32 223.56 205.73 237.95C202.08 252.63 194.55 268.37 178.69 272.87C175.6 273.74 172.46 274.06 169.25 274.08C159.53 274.14 151.83 266.71 150.14 257.24C147.45 242.17 152.19 226.25 153.47 211.25C154.3 201.54 153.81 188.15 140.75 189C130.07 189.68 129.44 202.61 130.21 210.71C131.23 221.48 132.23 232.24 133.26 243.01C134.18 252.62 134.35 264.08 125.86 270.61C122.37 273.29 118.06 274 113.75 274.07C95.68 274.38 87.64 263.45 81.73 248C79.94 243.31 75.77 235.32 78.25 230.44C80.24 229.55 82.27 229.51 84.25 230.42C86.07 233.79 86.12 238.85 87.21 242.61C90.65 254.41 96.63 263.47 109.15 266.21C113.43 267.14 118.74 267.74 122.35 264.59C127.08 260.46 126.32 251.29 126 245.75C125.12 230.42 120.08 212.48 123.16 197.29C125.28 186.8 135.42 180.51 145.75 182.15C154.92 183.61 160.44 191.96 161.03 200.75C162.05 215.71 158.44 230.38 157.87 245.25C157.49 255.04 156.66 267.68 170.25 266.97C172.36 266.86 174.6 266.38 176.64 265.81C201.59 258.88 199.19 224.51 202.11 204.26C203.87 192.12 209.82 180.66 214.83 169.63C221.33 155.32 227.42 140.52 230.79 125.12C233.07 114.67 233.87 103.34 231.83 92.78C230.82 87.57 226.11 81.53 227.1 76.25C229.24 75.08 230.78 74.72 233.23 75.25Z" fill="#135083" fill-rule="evenodd" stroke="#135083" stroke-width="0.25" stroke-linejoin="round"/>
</svg>