<?xml version="1.0" encoding="UTF-8"?>
<svg xmlns="http://www.w3.org/2000/svg" viewBox="0 0 201 250" width="201" height="250">
<path d="M104.96 38.75C106.99 40.22 115.04 39.31 118.25 39.96C119.67 40.25 121.21 41 122.38 41.85C132.78 49.48 121.36 55.85 119.45 63.75C121.56 63.93 123.62 63.21 125.75 63.09C132.09 62.74 139.1 62.93 145.09 65.21C158.06 70.12 167.5 84.37 167.62 98.25C167.69 106.27 164.67 114.79 161.56 122.07C159.45 122.07 157.35 122.07 155.24 122.07C155.19 117.98 157.73 113.57 158.76 109.57C161.51 98.93 160.46 87.39 152.73 79.02C144.32 69.91 133.24 69.16 121.75 71.03C117.08 71.8 110.24 72.71 110.07 78.75C114.59 79.98 123.62 75.14 126.69 79.75C123.76 88.89 108.44 83.28 104.55 87.31C99.71 92.33 97.24 99.86 93.31 105.57C91.43 108.31 89.18 111.12 85.43 110.28C71.5 107.15 86.62 92.45 86.75 86.05C83.05 83.83 73.32 85.62 75.25 78.25C80.92 76.93 92.06 82.78 92.82 73.75C91.06 71.97 87.18 72.25 84.75 71.94C78.2 71.13 71.93 69.36 65.25 70.08C61.46 70.49 56.38 73.14 53.25 69.89C52.47 64.38 60.24 63.71 64.25 63.34C71.89 62.64 79.12 64.05 86.61 65.22C89.52 65.68 92.79 66.65 95.75 66.45C98.31 66.28 99.38 63.35 99.49 61.25C91.94 58.63 82.25 62.54 76.13 55.62C73.49 52.63 75.27 48.13 76.07 44.76C78.09 36.22 82.25 27.56 85.73 19.51C86.8 17.05 87.97 12.66 90.53 11.29C93.66 9.61 98.5 10.32 101.93 10.25C104.54 10.19 107.15 10.23 109.75 10.28C111.58 10.3 113.43 10.28 115.25 10.5C120.32 11.12 120.39 15.32 118.5 19.25C115.57 25.35 106.33 33.16 104.96 38.75ZM111.75 17.47C109.38 16.71 96.19 16.56 94.21 17.96C92.28 19.31 91.68 23.48 90.8 25.59C88.4 31.41 86.19 37.29 83.84 43.13C82.79 45.75 81 49.45 81.87 52.25C88.4 55.52 103.57 50.53 109.21 54.25C109.56 58.04 106.06 62.82 104.36 66.12C100.16 74.26 96.28 82.65 91.94 90.68C89.99 94.27 86.31 98.57 86.6 102.75C89.48 101.76 93.39 94.07 95.12 91.37C101.54 81.31 106.76 70.46 113.1 60.34C115.22 56.96 119.81 51.79 119.32 47.75C117.63 46.06 114.51 46.43 112.25 46.37C107.58 46.27 98.09 47.37 94.24 45.25C93.75 42.66 95.53 40.8 96.93 38.68C99.98 34.06 102.81 28.86 106.47 24.71C108.19 22.74 111.63 20.18 111.75 17.47ZM41.05 43.25C40.28 46.58 36.45 47.36 35.01 50.25C36.83 54.89 52.37 57.52 45.51 64.25C41.05 65.09 31.32 56.26 27.16 53.58C24.92 52.14 22.88 51.07 23.25 48.14C25.11 47.01 26.97 45.88 28.83 44.75C28.56 41.8 17.44 36.67 23.3 33.5C24.84 32.66 26.77 33.9 28.1 34.66C31.15 36.39 38.81 41.04 41.05 43.25ZM180.62 33.25C183.35 41.66 174.46 39.1 173.69 44.75C175.54 45.58 177.4 46.42 179.25 47.25C180 50.72 177.47 51.56 175.02 53.28C170.58 56.4 166.68 60.57 161.86 63.13C159.51 64.37 156.8 64.26 155.53 61.75C156.28 55.48 166.33 54.41 167.64 48.25C166.26 46.2 164.12 46.78 162.1 45.75C162.21 41.5 176.54 32.03 180.62 33.25ZM49.58 77.75C47.56 80.04 44.77 81.13 43.3 84.03C41.04 88.49 39.06 96.31 40.1 101.22C42.68 113.34 46.99 125.56 50.78 137.43C54.34 148.57 56.14 160.57 58.23 172.08C59.08 176.7 61.66 185.04 60.75 189.42C58.67 190.43 56.18 190.65 54.25 189.32C53.79 187.27 54.24 185.22 52.25 184.06C49.46 185.21 48.94 189.73 46.59 191.82C45.26 192.99 42.92 193.92 42.62 195.25C42.62 196.9 42.62 198.54 42.62 200.19C41.9 201.13 41.02 201.53 39.75 201.58C35.97 201.71 36.09 198.51 34.45 196.02C32.05 196.02 29.65 196.02 27.25 196.02C23.29 186.73 38.56 189.49 42.59 185.82C43.43 185.06 50.61 174.89 50.81 174.14C51.75 170.51 48.21 156.14 46.25 152.85C40.88 150.52 30.54 156.78 25.76 159.51C23.93 160.56 21.29 161.61 20.65 163.87C19.14 169.22 20.41 180.31 20.42 186.25C20.45 196 20.29 205.75 20.25 215.49C20.23 220.11 19.6 225.19 20.33 229.75C23.39 231.55 28.74 230.56 32.25 230.6C41.92 230.72 51.58 230.59 61.25 230.48C88.74 230.17 116.26 230.45 143.75 230.5C152.42 230.51 161.09 230.6 169.75 230.46C173.26 230.4 177.44 231.1 180.75 229.88C182.23 225.19 181.12 218.69 181.11 213.75C181.1 202.92 181.15 192.08 181.2 181.25C181.22 177.06 182.48 166.95 180.79 163.4C180 161.74 176.87 160.81 175.35 159.89C171.18 157.38 161.16 151.58 156.34 152.21C153.51 152.58 151.43 163.55 151.02 166.25C150.54 169.37 147.9 177.28 148.78 179.97C149.56 182.32 159.17 185.07 161.62 188.13C162.83 189.65 162.76 191.67 164.75 192.52C167.97 193.91 171.69 192.16 174.7 194.25C176.81 201.01 168.78 198.49 165.25 199.37C164.75 202.13 164.25 204.9 163.75 207.66C157.9 209.5 158.48 204.74 157.53 200.74C156.1 194.78 157.67 193.27 152.19 189.55C150.66 188.52 149.66 187.42 147.75 187.25C145.55 189.14 145.63 194.96 145.15 197.77C143.21 208.99 139.15 228.94 122.54 220.71C117.27 218.1 115.82 212.68 114.81 207.35C112.93 197.42 111.02 187.31 109.94 177.25C109.28 171.13 107.9 161.48 99.75 161.63C92.65 161.76 92.17 170.38 91.29 175.61C89.73 184.89 89 194.26 87.26 203.5C86.31 208.56 85.76 213.85 82.07 217.82C76.61 223.7 66.23 223.73 61.2 217.07C58.94 214.08 58.39 210.24 57.63 206.7C57.06 204.02 56.16 200.92 56.66 198.25C58.64 197.3 60.93 197.55 62.96 198.25C64.75 203.33 63.9 209.34 67.33 213.93C70.19 217.76 75.67 216.37 77.71 212.48C79.27 209.51 82.13 196.76 80.77 193.95C79.36 191.03 74.3 192.32 73.49 188.74C72.15 182.86 74.67 172.93 71.82 167.9C69.05 163.02 58.71 158.06 60.25 151.59C64.78 149.28 66.37 153.94 70.25 154.4C75.89 150.76 76.29 132.17 85.25 137.68C86.32 142.72 80.64 151.92 77.7 155.97C76.48 157.65 75.1 158.68 74.53 160.75C75.59 162.79 78.03 163.58 78.75 165.95C80.22 170.77 78.98 177.24 79.08 182.25C79.12 184.35 78.88 187.32 81.75 187.18C83.2 185.17 83.09 182.2 83.57 179.76C85.46 170.14 85.1 160.1 95.77 156.04C97.78 155.27 100.52 154.68 102.64 155.17C105.58 155.86 106.7 158.6 108.81 160.43C110.52 161.91 113.44 162.18 114.78 163.96C116.07 165.68 117.48 180.28 117.76 183.44C118.07 187.01 117.47 196.35 121.25 197.99C126.66 193.58 119.81 177.21 124.25 171.36C129.04 170.27 129 174.74 130.25 177.85C132.84 178.97 136.99 178 138.38 180.75C137.5 185.33 132.56 184.07 130.56 187.34C128.63 190.48 130.52 194.23 129.27 197.53C127.74 201.59 122.44 203.93 121.35 207.13C119.64 212.16 126.87 217.12 131.14 215.82C137.39 213.92 137.43 198.99 138.41 193.75C141.08 179.56 144.22 165.47 147.01 151.25C147.9 146.7 150.33 133.07 152.4 129.75C154.44 128.97 156.44 128.97 158.25 130.22C159.83 135.3 154.76 140.8 155.85 145.75C158.12 146.17 160.46 145.95 162.75 146.45C168.57 147.72 173.77 150.97 178.93 153.79C181.37 155.11 185.24 156.57 186.92 158.83C189.24 161.97 188.06 168.04 188.09 171.75C188.18 182.7 188.19 193.65 188.25 204.6C188.29 212.64 188.4 220.7 188.11 228.75C188.03 230.89 188.02 235.78 185.57 236.77C181.94 238.22 177.07 237.65 173.25 237.72C164.09 237.9 154.91 237.79 145.75 237.74C116.42 237.58 87.08 237.7 57.75 237.78C48.25 237.81 38.75 237.81 29.25 237.83C25.03 237.83 19.09 238.58 15.25 236.51C12.65 235.12 12.99 231.25 12.96 228.75C12.9 221.42 12.81 214.08 12.86 206.75C12.94 195.42 12.95 184.08 12.92 172.75C12.91 168.71 11.8 162.06 14.42 158.65C17.01 155.27 32.87 147.76 37.27 146.56C39.79 145.88 42.68 146.3 45.01 145.25C45.83 141.9 42.15 133.75 41.16 130.17C37.9 118.43 32.26 105.16 34.07 92.75C34.94 86.8 37.88 79.72 42.25 75.49C45.01 72.82 49.26 73.71 49.58 77.75Z" fill="#1a5380" fill-rule="evenodd" stroke="#1a5380" stroke-width="0.25" stroke-linejoin="round"/>
</svg>