<?xml version="1.0" encoding="UTF-8"?>
<svg xmlns="http://www.w3.org/2000/svg" viewBox="0 0 240 169" width="240" height="169">
<path d="M56.85 12.95C56.85 14.69 56.85 16.42 56.85 18.16C49.47 19.89 35.39 18.78 27.25 18.89C24.56 18.92 18.05 18.29 16.34 21.09C13.94 25.03 15.07 32.35 15 36.75C14.95 40.15 14.49 43.98 15.25 47.3C18.79 48.43 22.72 47.55 26.38 48.31C28.66 48.78 30.53 50.95 32.75 50.98C35.31 51.02 37.48 48.73 40.08 48.29C43.53 47.7 50.05 47.52 53.03 49.72C54.29 50.64 54.97 52.09 56.25 53.01C59.39 52.76 60.63 50.27 63.43 49.21C66.78 47.94 70.71 47.78 74.25 48.05C79.41 48.43 85.71 54.08 87.74 53.94C89.88 53.79 92.22 50.89 94.11 49.85C97.29 48.1 101.7 47.85 105.25 47.99C109.17 48.15 112.79 49.03 116.09 51.17C117.73 52.23 119.69 54.99 121.74 54.86C123.83 54.73 125.44 51.54 127.24 50.49C130.66 48.5 134.33 47.95 138.25 47.97C141.73 47.99 145.54 48.45 148.66 50.08C150.72 51.15 153.35 54.1 155.75 53.97C157.61 53.87 159.08 51.31 160.59 50.33C163.2 48.64 166.18 48.01 169.25 47.93C172.69 47.85 176.35 47.97 179.61 49.17C181.62 49.9 183.07 52.25 185.27 52.4C187.72 52.55 188.85 49.99 190.87 49.15C192.22 48.58 193.94 48.41 195.37 48.22C198.5 47.79 202.25 47.89 205.27 48.92C206.97 49.5 208.37 51 210.25 50.94C212.29 50.86 213.78 48.65 215.89 48.21C219.44 47.46 224.73 49.21 227.7 47.25C228.74 41.12 228.19 33.44 227.55 27.25C227.3 24.8 227.04 21.97 224.79 20.47C220.96 17.93 215.57 18.73 211.25 18.74C201.92 18.75 192.58 18.84 183.25 18.89C156.42 19.03 129.58 18.88 102.75 19C94.05 19.04 72.3 20.53 65.11 18.25C65.11 16.46 65.11 14.66 65.11 12.87C68.85 11.4 73.78 12.08 77.75 12.07C85.75 12.05 93.75 12.02 101.75 12.02C129.75 12.03 157.75 12.1 185.75 12.03C194.92 12 204.08 11.99 213.25 11.98C217.24 11.98 222.91 11.34 226.61 13.16C233.09 16.33 234.12 22.75 234.7 29.22C235.83 41.94 235.03 55.03 234.74 67.77C234.64 71.85 235.43 81.86 233.49 85.22C231.32 88.98 223.76 86.72 220.44 88.75C219.74 91.5 220.33 94.9 220.41 97.75C220.62 105.07 221.86 123.34 219.75 129.53C215.61 129.13 214.81 127.84 213.75 124.19C210.52 122.5 206.3 123.89 202.75 123.03C199.46 122.22 198.73 119.85 196.25 119.02C194.8 120.03 194.11 121.94 192.4 122.67C188.8 124.2 181.82 123.72 178.47 121.76C177.21 121.02 176.41 119.71 175.25 118.85C172.89 119.52 171.98 122.05 169.62 122.82C165.51 124.17 158.83 123.95 155.15 121.58C153.2 120.32 152.37 118 150.25 117.05C148.02 118.36 146.49 120.65 144.25 122.01C140.38 124.37 132.3 123.84 128.3 121.95C125.58 120.67 124.09 117.39 121.25 116.61C119.05 118.09 117.4 120.48 115.03 121.76C111.15 123.85 103.72 124.02 99.56 122.7C96.52 121.74 94.75 118.58 91.75 117.89C90.19 119.15 88.91 120.91 87.21 121.98C84.02 123.97 76.53 123.98 72.98 122.75C70.31 121.83 69.57 118.89 66.75 118.49C65.92 119.68 65.68 121.86 64.38 122.64C62.4 123.83 53.25 123.45 50.98 122.75C48.85 122.09 47.6 120.45 45.75 119.41C44.92 120.53 44.08 121.64 43.25 122.75C39.11 124.16 33.38 122.02 29.8 124.25C27.91 130.19 29.11 138.58 29.55 144.75C29.71 147.14 30.2 150.43 32.64 151.63C36.17 153.36 41.43 152.74 45.25 152.79C54.91 152.94 64.58 152.84 74.25 152.87C107.42 153 140.58 152.74 173.75 152.88C182.58 152.92 191.42 152.91 200.25 152.9C203.2 152.9 208.42 153.88 210.98 152.22C214.69 149.82 213 141.68 214.25 138.01C216.09 138.01 217.92 138.01 219.76 138.01C220.56 140.39 220.24 142.77 220.05 145.25C219.09 157.8 212.19 158.85 201.25 159.02C195.25 159.11 189.25 159.05 183.25 159.06C148.25 159.14 113.25 159.03 78.25 159.08C68.25 159.1 58.25 159.1 48.25 159.1C42.58 159.11 35.98 159.84 30.6 157.67C22.45 154.38 23.01 146.17 22.68 138.75C22.19 127.28 22.38 115.73 22.48 104.25C22.52 100.13 23.82 93.14 21.75 89.51C18.34 88.1 12.04 89.01 9.71 85.55C7.76 82.66 8.39 72.91 8.31 69.25C8.02 56.95 7.83 44.55 8.18 32.25C8.32 27.26 7.91 20.66 11.31 16.55C17.18 9.47 37.07 11.93 45.75 12.13C49.26 12.22 53.54 11.71 56.85 12.95ZM82.37 80.75C84.54 76.25 83.41 62.18 80.21 58.05C76.62 53.43 67.71 53.54 63.57 57.32C59.5 61.04 60.6 69.82 60.65 74.75C60.67 76.46 60.47 79.65 61.91 80.83C64.24 82.75 79.63 82.17 82.37 80.75ZM116.49 80.75C117.27 78.14 116.95 74.98 117.02 72.25C117.11 69.27 117.58 65.81 116.78 62.9C115.27 57.43 108.48 54.32 103.25 54.46C93.2 54.73 90.4 65.03 90.6 73.25C90.66 75.69 90.5 78.56 91.6 80.75C95.49 82.93 105.61 81.86 110.25 81.88C112.52 81.89 114.68 82.29 116.49 80.75ZM126.25 80.91C131.33 83.15 138.78 81.81 144.25 81.84C146.29 81.84 149.43 82.41 151.07 80.82C152.47 79.45 152.02 76.52 152.11 74.75C152.41 68.78 152.65 62.7 148.09 58.16C142.07 52.18 131.23 53.35 127.24 60.97C125.18 64.92 124.76 76.79 126.25 80.91ZM206.01 80.75C207.27 77.43 206.74 73.26 206.76 69.75C206.79 61.98 208.1 54.18 197.37 54.74C195.77 54.82 193.27 55.66 192.31 57.05C189.61 60.91 189.98 76.48 191.25 80.94C194.45 82.38 203.02 82.66 206.01 80.75ZM27.54 80.75C29.45 76.56 28.05 67.07 27.93 62.25C27.88 60.36 28.23 57.13 26.44 55.81C23.87 53.92 18.96 55.46 16.25 56.25C13.95 59.65 14.05 76.72 15.42 80.75C18.6 81.89 24.43 82.13 27.54 80.75ZM51.17 80.75C53.27 75.95 52.24 67.92 51.9 62.75C51.79 61.01 51.83 58.43 50.78 56.96C49.68 55.44 46.96 55.08 45.25 55.03C42.98 54.95 39.04 55.27 37.49 57.25C36.18 58.93 36.39 61.69 36.29 63.68C36.02 68.86 34.9 75.77 36.38 80.75C39.39 82.64 48.11 82.5 51.17 80.75ZM166.82 55.16C159.4 56.85 157.45 74.81 160.27 80C161.07 81.48 163.3 81.55 164.75 81.64C167.77 81.83 178.43 82.7 180.63 81.39C183.05 79.94 182.11 73.68 182.08 71.25C182.02 64.65 182.33 58.69 175.36 55.86C172.63 54.75 169.73 54.5 166.82 55.16ZM227.61 80.75C229.05 75.54 228.1 68.4 227.74 63.01C227.62 61.13 227.77 58.3 226.5 56.75C225.01 54.94 221.35 54.84 219.25 55.06C212.24 55.8 214.35 69.25 214.4 74.25C214.43 76.67 214.05 79.36 215.75 81.29C219.01 82.08 224.78 82.76 227.61 80.75ZM146.15 90.25C142.8 88.97 129.08 88.93 126.25 90.75C125.39 93.04 125.64 95.82 125.54 98.25C125.18 106.69 126.42 117.58 137.23 117.29C147.37 117.02 147.04 106.08 146.93 98.75C146.89 96.02 147.46 92.71 146.15 90.25ZM213.32 90.25C210.36 88.88 203.82 89.05 201 90.75C200.16 92.75 200.43 95.09 200.39 97.25C200.28 102.52 198.47 116.99 206.25 117.08C215.9 117.18 213.95 105.94 213.98 99.25C213.99 96.39 214.48 92.89 213.32 90.25ZM41.25 90.5C38.61 89.32 32.31 89.26 29.75 90.6C28.19 94.97 29.34 103.9 29.52 108.75C29.59 110.58 29.41 113.6 30.68 115.08C32.14 116.78 35.74 116.72 37.75 116.54C39.17 116.42 41.12 116.03 41.74 114.53C43.31 110.75 42.09 101.09 41.97 96.75C41.91 94.69 42.22 92.34 41.25 90.5ZM62.35 90.25C59.36 89.47 54.02 89.11 51.25 90.54C49.22 94.35 50.33 105.22 50.7 109.72C50.86 111.68 50.73 114.06 52.18 115.58C53.92 117.4 57.46 117.11 59.74 116.87C62.77 116.54 62.97 113.73 63.04 111.25C63.18 106.31 64.52 94.27 62.35 90.25ZM86.42 90.75C82.94 89.07 74.52 89.14 71.26 91.25C69.11 96.92 69.32 117.3 78.25 117.33C88.39 117.37 87.23 107.75 87.21 100.25C87.2 97.31 87.77 93.38 86.42 90.75ZM116.25 90.26C112.47 89.33 98.91 88.86 95.79 90.75C94.8 93.09 95.37 96.22 95.37 98.75C95.39 106.82 96.37 117.22 106.75 117.04C117.06 116.87 116.88 107.07 116.96 99.25C116.99 96.44 117.69 92.71 116.25 90.26ZM170.75 89.91C166.03 89.91 161.31 89.91 156.59 89.91C155.37 92.99 155.69 96.47 155.63 99.75C155.49 106.24 154.47 117.39 163.74 117.29C174.24 117.18 173.29 96.5 170.75 89.91ZM191.75 90.66C188.96 89.57 183.24 89.17 180.6 90.75C179.53 92.82 179.91 95.44 179.91 97.75C179.9 103.11 177.57 117.03 185.25 117.13C187.08 117.15 189.63 117.19 190.91 115.65C192.3 114 192.07 111.27 192.1 109.25C192.19 104.25 193.32 95.14 191.75 90.66Z" fill="#578119" fill-rule="evenodd" stroke="#578119" stroke-width="0.25" stroke-linejoin="round"/>
</svg>